<svg xmlns="http://www.w3.org/2000/svg" width="20" height="20" viewBox="0 0 20 20">
    <path fill="#FFF" d="M16.561 17.341c1.695 0 2.606-.89 2.606-2.546V6.78c0-1.672-.91-2.563-2.606-2.563H14.96c-.596 0-.8-.078-1.193-.484l-.596-.625c-.408-.406-.817-.609-1.586-.609H8.368c-.77 0-1.178.187-1.586.61l-.612.624c-.392.39-.58.484-1.177.484h-1.57c-1.695 0-2.59.89-2.59 2.563v8.014c0 1.656.895 2.546 2.59 2.546h13.138zm-6.64-2.39c-2.448 0-4.442-1.968-4.442-4.437 0-2.452 1.994-4.42 4.443-4.42 2.48 0 4.442 1.968 4.442 4.42 0 2.5-1.962 4.437-4.442 4.437zm5.965-6.249c-.596 0-1.083-.469-1.083-1.062 0-.61.487-1.078 1.083-1.078.597 0 1.067.468 1.083 1.078 0 .593-.486 1.062-1.083 1.062zm-5.949 4.562c1.523 0 2.763-1.219 2.763-2.75 0-1.53-1.24-2.75-2.763-2.75-1.538 0-2.762 1.22-2.762 2.75 0 1.531 1.224 2.75 2.762 2.75z"/>
</svg>
