<svg xmlns="http://www.w3.org/2000/svg" width="40" height="40" viewBox="0 0 40 40">
    <g fill="none" fill-rule="evenodd" transform="translate(4 4)">
        <circle cx="16" cy="16" r="16" fill="#404040"/>
        <path fill="#FFF" fill-rule="nonzero" d="M12.112 14.403c1.4-1.46 3.677-1.46 5.075 0 .216.226.216.59 0 .816-.215.225-.565.225-.78 0-.467-.488-1.091-.756-1.757-.756-.666 0-1.29.268-1.757.756L9.77 18.48c-.97 1.011-.97 2.658 0 3.67.466.487 1.09.755 1.757.755.666 0 1.29-.268 1.756-.756l2.148-2.242c.215-.225.565-.225.78 0 .216.225.216.59 0 .815l-2.147 2.243c-.675.705-1.577 1.094-2.538 1.094-.96 0-1.862-.389-2.537-1.094-.676-.706-1.048-1.647-1.048-2.65 0-1.004.372-1.945 1.048-2.65zm5.443-5.348c1.487-1.486 3.905-1.486 5.391 0 .718.717 1.113 1.674 1.113 2.695s-.395 1.979-1.113 2.696l-3.525 3.525c-.743.743-1.72 1.114-2.695 1.114-.977 0-1.953-.371-2.696-1.114-.229-.229-.229-.6 0-.83.23-.228.6-.228.83 0 1.029 1.03 2.703 1.03 3.732 0l3.524-3.525c.496-.496.77-1.158.77-1.866 0-.707-.274-1.37-.77-1.866-.495-.496-1.158-.769-1.866-.769-.707 0-1.37.273-1.866.769l-2.695 2.695c-.229.23-.6.23-.83 0-.228-.229-.228-.6 0-.829z"/>
    </g>
</svg>
