<svg xmlns="http://www.w3.org/2000/svg" width="40" height="40" viewBox="0 0 40 40">
    <g fill="none" fill-rule="evenodd">
        <circle cx="20" cy="20" r="20" fill="#000" fill-opacity=".2"/>
        <path fill="#FFF" fill-rule="nonzero" d="M27.873 28.81c2.035 0 3.127-1.069 3.127-3.056v-9.617c0-2.006-1.092-3.075-3.127-3.075h-1.92c-.717 0-.962-.094-1.432-.581l-.716-.75c-.49-.487-.98-.731-1.903-.731h-3.86c-.924 0-1.414.225-1.903.731l-.735.75c-.47.469-.697.581-1.413.581h-1.883C10.074 13.062 9 14.131 9 16.137v9.617c0 1.987 1.074 3.056 3.108 3.056h15.765zm-7.967-2.869c-2.939 0-5.33-2.362-5.33-5.324 0-2.943 2.391-5.305 5.33-5.305 2.976 0 5.33 2.362 5.33 5.305 0 3-2.354 5.324-5.33 5.324zm7.157-7.498c-.715 0-1.3-.563-1.3-1.275 0-.731.585-1.294 1.3-1.294.716 0 1.281.563 1.3 1.294 0 .712-.584 1.275-1.3 1.275zm-7.138 5.474c1.827 0 3.315-1.463 3.315-3.3 0-1.837-1.488-3.3-3.315-3.3-1.846 0-3.315 1.463-3.315 3.3 0 1.837 1.469 3.3 3.315 3.3z"/>
    </g>
</svg>
