<svg xmlns="http://www.w3.org/2000/svg" width="70" height="14" viewBox="0 0 70 14">
    <path fill="#FFF" d="M.651 12.628V2.02c0-.373.306-.679.662-.679h7.35c.34 0 .61.272.61.611 0 .34-.27.628-.61.628h-6.67v4.244h5.906c.34 0 .61.271.61.61 0 .34-.27.612-.61.612H1.992v4.582c0 .374-.305.68-.679.68-.356 0-.662-.306-.662-.68zm10.65-10.71v-.22c0-.425.34-.696.764-.696.441 0 .78.271.78.696v.22c0 .408-.339.696-.78.696-.424 0-.764-.288-.764-.696zm.119 10.727v-7.62c0-.357.288-.663.645-.663.373 0 .662.289.662.662v7.621c0 .374-.272.662-.645.662-.374 0-.662-.288-.662-.662zm4.081 0v-7.62c0-.357.289-.663.645-.663.373 0 .662.289.662.662v1.647c.645-1.46 1.918-2.343 3.021-2.343.39 0 .645.289.645.662 0 .357-.237.611-.577.662-1.697.204-3.09 1.477-3.09 4.006v2.987c0 .357-.27.662-.644.662-.373 0-.662-.288-.662-.662zm7.017-4.294h5.653c-.136-1.595-1.053-2.987-2.801-2.987-1.528 0-2.682 1.273-2.852 2.987zm6.365 3.751c-.831.798-1.816 1.324-3.31 1.324-2.41 0-4.378-1.85-4.378-4.566v-.034c0-2.529 1.782-4.565 4.209-4.565 2.597 0 4.073 2.121 4.073 4.447 0 .356-.288.61-.61.61h-6.349c.187 1.902 1.528 2.97 3.09 2.97 1.086 0 1.884-.423 2.529-1.018.101-.084.22-.152.373-.152.322 0 .577.254.577.56 0 .153-.068.305-.204.424zm5.083 1.256c-.323 0-.594-.203-.73-.594l-2.665-7.417c-.034-.102-.085-.238-.085-.357 0-.322.272-.628.662-.628.34 0 .56.221.662.544l2.207 6.585L36.24 4.89c.102-.306.306-.527.645-.527h.068c.357 0 .577.221.68.527l2.206 6.602 2.24-6.62c.085-.271.272-.509.628-.509.374 0 .645.289.645.611 0 .12-.05.255-.085.357l-2.682 7.434c-.135.39-.407.594-.712.594h-.051c-.34 0-.594-.203-.713-.594l-2.19-6.399-2.206 6.4c-.12.39-.374.593-.713.593h-.034zm15.08.068c-2.631 0-4.55-2.07-4.55-4.549v-.034c0-2.478 1.936-4.582 4.584-4.582 2.63 0 4.565 2.07 4.565 4.548v.034c0 2.478-1.952 4.583-4.6 4.583zm.034-1.171c1.9 0 3.225-1.528 3.225-3.378v-.034c0-1.884-1.41-3.428-3.26-3.428-1.9 0-3.207 1.544-3.207 3.394v.034c0 1.884 1.392 3.412 3.242 3.412zm6.66.39v-7.62c0-.357.29-.663.646-.663.373 0 .662.289.662.662v1.647c.645-1.46 1.918-2.343 3.02-2.343.391 0 .646.289.646.662 0 .357-.238.611-.577.662-1.698.204-3.09 1.477-3.09 4.006v2.987c0 .357-.271.662-.644.662-.374 0-.662-.288-.662-.662zm6.61 0V1.41c0-.356.29-.662.646-.662.373 0 .662.306.662.662v8.045l4.752-4.837c.153-.17.306-.255.51-.255.356 0 .593.289.593.611 0 .204-.084.34-.254.51L66.39 8.3l3.14 3.955c.12.153.17.272.17.441 0 .357-.271.611-.628.611-.238 0-.39-.085-.56-.305l-3.038-3.836-1.816 1.799v1.68c0 .374-.272.662-.645.662-.374 0-.662-.288-.662-.662z"/>
</svg>
