<svg xmlns="http://www.w3.org/2000/svg" width="24" height="24" viewBox="0 0 24 24">
    <path fill="#FFF" fill-rule="evenodd" stroke="#FFF" stroke-width=".4" d="M12.624 11.45l.099.15c.387.55 1.944 2.393 5.128 1.983.051-.012.104-.02.159-.02.333 0 .609.248.652.569l.006.09v.161l2.799-1.36c.206-.1.437-.09.627.007.22.084.382.282.415.522l.007.091v7.131c0 .222-.111.428-.296.55-.11.072-.236.109-.363.109-.058 0-.117-.008-.174-.024l-.085-.03-2.93-1.255v.758c0 1.042-.81 1.898-1.834 1.97l-.14.005H3.458c-1.041 0-1.897-.81-1.97-1.834l-.005-.14v-8.198c0-.308.212-.566.498-.638l.079-.015h0l.17-.01c.09 0 .233.013.353.088l.069.053s2.141 2.336 6.373 1.46c1.179-.32 2.587-.948 3.598-2.172zM6.904 1.145c.216-.005.431.003.643.022l.39.048h0l.132.023h0l.182.039h0c.315.07.624.165.925.29l.059.028h0c1.074.446 2.525 1.38 3.364 3.305.144.332-.01.717-.343.86-.083.036-.17.053-.255.054-.256.002-.501-.146-.61-.394-.91-2.091-2.747-2.707-3.42-2.866-.337-.076-.683-.11-1.035-.102-2.337.056-4.192 1.991-4.135 4.313.053 2.167 1.752 3.916 3.877 4.095l.464.025h0c.052 0 .101-.006.15.004l.164-.004c1.088-.044 3.618-.496 4.976-3.608l.03-.084c.232-.614 1.433-3.366 4.421-3.589l.263-.013h.193c2.227.047 4.052 1.835 4.106 4.071.054 2.203-1.63 4.053-3.806 4.254l-.279.022c-.04.003-.092.006-.154.007-.62.01-2.245-.156-3.41-1.991-.194-.306-.102-.71.205-.902.307-.193.713-.101.907.204.805 1.267 1.86 1.385 2.229 1.385l.08-.003c.033-.005.064 0 .098 0 1.59-.038 2.854-1.365 2.815-2.944-.037-1.525-1.273-2.747-2.789-2.795h-.163c-2.254.054-3.241 2.147-3.459 2.688l-.068.183h0c-1.101 2.544-2.898 3.609-4.211 4.054-.75.254-1.429.34-1.912.363l-.154.005c-.238.006-.412-.003-.505-.01l-.04-.004c-2.906-.107-5.272-2.453-5.343-5.381-.074-3.043 2.356-5.578 5.418-5.652z"/>
</svg>
