<svg xmlns="http://www.w3.org/2000/svg" width="49" height="49" viewBox="0 0 49 49">
    <defs>
        <linearGradient id="prefix__a" x1="100%" x2="0%" y1="0%" y2="100%">
            <stop offset="0%" stop-color="#FF8003"/>
            <stop offset="100%" stop-color="#FF1988"/>
        </linearGradient>
    </defs>
    <g fill="none" transform="translate(.03)">
        <circle cx="24.2" cy="24.2" r="24.2" fill="url(#prefix__a)"/>
        <path fill="#FFF" d="M35.87 19.665c-.066-2.67-2.303-4.788-4.989-4.724h-.003c-3.895.093-5.313 3.83-5.468 4.277-1.661 3.807-4.834 4.184-5.965 4.192-.057-.012-.114-.005-.174-.006-.098-.001-.196-.01-.292-.013l-.021-.001c-2.571-.099-4.662-2.175-4.725-4.766-.066-2.695 2.087-4.94 4.799-5.006.408-.01.81.031 1.2.118.782.186 2.914.9 3.97 3.326.126.289.41.46.708.458.099-.001.2-.021.296-.063.387-.166.564-.613.397-.997-.973-2.235-2.657-3.319-3.904-3.836-.022-.012-.045-.023-.068-.032-.35-.145-.708-.256-1.073-.337-.08-.02-.15-.034-.211-.045l-.008-.002c-.12-.023-.197-.033-.217-.035l-.013-.002c-.366-.054-.738-.078-1.114-.07-3.553.086-6.374 3.029-6.288 6.56.083 3.398 2.828 6.12 6.2 6.245.09.008.311.024.634.016.564-.014 1.43-.1 2.396-.427 1.525-.517 3.61-1.752 4.887-4.705.01-.021.017-.043.025-.065.01-.032 1.079-3.196 4.066-3.268h.002c1.845-.044 3.382 1.411 3.426 3.245.045 1.832-1.422 3.372-3.266 3.416-.04.001-.077-.006-.115 0-.306.018-1.664-.005-2.679-1.603-.225-.355-.696-.46-1.052-.237-.357.223-.463.692-.239 1.046 1.352 2.13 3.239 2.322 3.958 2.31.144-.002.24-.012.278-.017 2.633-.123 4.705-2.32 4.641-4.952"/>
        <path fill="#FFF" d="M35.894 25.42l-3.247 1.578v-.188c0-.421-.342-.764-.764-.764-.064 0-.125.01-.184.024-4.329.558-6.066-2.475-6.066-2.475-1.174 1.421-2.808 2.149-4.176 2.521-4.911 1.017-7.396-1.694-7.396-1.694-.226-.212-.592-.158-.592-.158-.064 0-.126.009-.186.024-.332.083-.578.382-.578.74v9.513c0 1.263 1.028 2.292 2.292 2.292h15.358c1.264 0 2.292-1.029 2.292-2.292v-.881l3.4 1.458c.096.04.199.061.3.061.148 0 .295-.042.421-.126.215-.141.344-.38.344-.638V26.14c0-.325-.203-.602-.49-.712-.22-.112-.488-.123-.728-.007z"/>
    </g>
</svg>
