<svg xmlns="http://www.w3.org/2000/svg" xmlns:xlink="http://www.w3.org/1999/xlink" width="40" height="40" viewBox="0 0 40 40">
    <defs>
        <path id="prefix__a" d="M16 5.02c0 .52-.08 1.04-.234 1.549-.751 3.542-7.177 7.817-7.45 7.996-.097.063-.205.097-.314.097-.11 0-.218-.034-.314-.097C7.414 14.387.984 10.111.22 6.511.08 6.06 0 5.539 0 5.02 0 3.193.947 1.509 2.47.63 3.523.022 4.659-.18 5.972.176c.164.042.303.16.38.32l1.677 3.483c.078.163.083.354.016.52-.07.17-.205.296-.372.351l-1.603.514 1.692 3.268.048-2.137c.005-.215.115-.409.29-.517l1.536-.953-1.56-3.132c-.13-.26-.067-.583.15-.767 1.48-1.258 3.625-1.464 5.302-.5C15.054 1.51 16 3.193 16 5.02zm-1.18 0c0-1.376-.712-2.643-1.86-3.308-1.136-.65-2.522-.61-3.602.085l1.583 3.175c.144.292.047.653-.223.819L8.98 6.87l-.092 4.11c-.006.282-.19.522-.45.587-.258.07-.53-.06-.657-.305L4.687 5.289c-.084-.163-.095-.36-.027-.531.068-.172.205-.303.375-.357l1.624-.52-1.236-2.568c-.228-.048-.442-.07-.646-.07-.599 0-1.2.164-1.736.473-1.147.662-1.86 1.928-1.86 3.304 0 .393.06.783.178 1.167.528 2.482 4.71 5.79 6.644 7.12 1.93-1.33 6.11-4.635 6.626-7.066.13-.438.19-.828.19-1.221z"/>
    </defs>
    <g fill="none" fill-rule="evenodd" transform="translate(12 12.67)">
        <use fill="#FFF" xlink:href="#prefix__a"/>
    </g>
</svg>
