<svg xmlns="http://www.w3.org/2000/svg" xmlns:xlink="http://www.w3.org/1999/xlink" width="24" height="24" viewBox="0 0 24 24">
    <defs>
        <linearGradient id="prefix__b" x1="73.242%" x2="20.966%" y1="11.571%" y2="87.963%">
            <stop offset="0%" stop-color="#F78361"/>
            <stop offset="100%" stop-color="#F54B64"/>
        </linearGradient>
        <path id="prefix__a" d="M3 22c-1.657 0-3-1.343-3-3V8c0-.309.142-.6.386-.79l9-7c.361-.28.867-.28 1.228 0l9 7c.244.19.386.481.386.79v11c0 1.657-1.343 3-3 3H3zm7-19.733L2 8.489V19c0 .552.448 1 1 1h3v-9c0-.513.386-.936.883-.993L7 10h6c.552 0 1 .448 1 1v9h3c.552 0 1-.448 1-1V8.49l-8-6.223zM12 12H8v8h4v-8z"/>
    </defs>
    <g fill="none" fill-rule="evenodd" transform="translate(2 1)">
        <use fill="url(#prefix__b)" xlink:href="#prefix__a"/>
    </g>
</svg>
