<svg xmlns="http://www.w3.org/2000/svg" width="40" height="40" viewBox="0 0 40 40">
    <g fill="none" fill-rule="evenodd">
        <path fill="#404040" d="M16 32c8.773 0 16-7.227 16-16S24.758 0 16 0C7.227 0 0 7.227 0 16s7.227 16 16 16z" transform="translate(4 4)"/>
        <path fill="#FFF" fill-rule="nonzero" d="M12.297 19.687c-3.55-3.526-5.792-8.004-3.123-10.663.156-.17.34-.327.51-.498.81-.796 1.59-.682 2.272.299l1.845 2.63c.64.924.469 1.436-.198 2.133l-.582.64c-.213.199-.114.483-.015.654.27.511 1.037 1.407 1.846 2.232.852.839 1.703 1.578 2.257 1.876.199.114.497.157.681-.028l.596-.583c.668-.654 1.221-.839 2.13-.199 1.107.782 1.888 1.337 2.654 1.863.923.668 1.164 1.464.27 2.289-.17.156-.326.34-.483.512-2.654 2.644-7.097.398-10.66-3.157z" transform="translate(4 4)"/>
    </g>
</svg>
