<svg xmlns="http://www.w3.org/2000/svg" width="41" height="40" viewBox="0 0 41 40">
    <g fill="none" fill-rule="evenodd" transform="translate(2.024 2)">
        <circle cx="18" cy="18" r="18" fill="#404040"/>
        <path fill="#FFF" fill-rule="nonzero" d="M18.266 10.405c.993 0 2.237-.672 2.979-1.567.671-.811 1.16-1.944 1.16-3.077 0-.154-.013-.307-.041-.433-1.105.042-2.434.741-3.231 1.678-.63.713-1.203 1.832-1.203 2.98 0 .167.028.335.042.39.07.015.182.029.294.029zm-3.497 16.923c1.357 0 1.958-.91 3.65-.91 1.72 0 2.098.882 3.609.882 1.482 0 2.475-1.37 3.413-2.714 1.049-1.538 1.482-3.048 1.51-3.118-.098-.028-2.937-1.19-2.937-4.448 0-2.825 2.238-4.098 2.364-4.196-1.483-2.126-3.735-2.182-4.35-2.182-1.664 0-3.021 1.007-3.874 1.007-.923 0-2.14-.95-3.58-.95-2.742 0-5.525 2.265-5.525 6.545 0 2.657 1.035 5.468 2.308 7.287 1.09 1.538 2.042 2.797 3.412 2.797z"/>
    </g>
</svg>
