<svg xmlns="http://www.w3.org/2000/svg" width="41" height="40" viewBox="0 0 41 40">
    <g fill="none" fill-rule="evenodd">
        <path fill="#404040" d="M16 32c8.773 0 16-7.227 16-16S24.758 0 16 0C7.227 0 0 7.227 0 16s7.227 16 16 16z" transform="translate(4.5 4)"/>
        <path fill="#FFF" fill-rule="nonzero" d="M18.061 16.878l5.523 5.506c-.242.21-.709.338-1.401.338H9.833c-.692 0-1.16-.129-1.4-.338l5.522-5.506.435.418c.563.515 1.03.74 1.61.74.596 0 1.063-.225 1.626-.74l.435-.418zm-10.45-6.232l5.346 5.314-5.362 5.361c-.113-.209-.177-.611-.177-1.159v-8.324c0-.58.064-.998.193-1.192zm16.778 0c.112.194.193.612.193 1.192v8.324c0 .548-.064.95-.177 1.16l-5.362-5.362 5.346-5.314zm-2.206-1.368c.66 0 1.127.145 1.368.306l-6.65 6.65c-.305.305-.595.434-.885.434-.29 0-.58-.113-.902-.435l-6.633-6.65c.225-.16.708-.305 1.352-.305h12.35z" transform="translate(4.5 4)"/>
    </g>
</svg>
