<svg xmlns="http://www.w3.org/2000/svg" width="40" height="40" viewBox="0 0 40 40">
    <g fill="none" fill-rule="evenodd">
        <circle cx="20" cy="20" r="15" fill="#000" fill-opacity=".5"/>
        <path fill="#FFF" fill-rule="nonzero" d="M12.219 22.417c1.219 0 2.229-1 2.229-2.209 0-1.24-.98-2.208-2.23-2.208C10.99 18 10 18.99 10 20.208c0 1.209.99 2.209 2.219 2.209zm7.781 0c1.208 0 2.198-1 2.198-2.209 0-1.24-.969-2.208-2.198-2.208-1.219 0-2.208.99-2.208 2.208 0 1.209.99 2.209 2.208 2.209zm7.781 0c1.209 0 2.219-1 2.219-2.209 0-1.24-.98-2.208-2.219-2.208-1.24 0-2.229.99-2.229 2.208 0 1.209.99 2.209 2.23 2.209z"/>
    </g>
</svg>
