<svg xmlns="http://www.w3.org/2000/svg" width="40" height="40" viewBox="0 0 40 40">
    <g fill="none" fill-rule="evenodd" transform="translate(4 4)">
        <circle cx="16" cy="16" r="16" fill="#404040"/>
        <path fill="#FFF" fill-rule="nonzero" d="M8.641 18.537c1.153 0 2.108-.945 2.108-2.088 0-1.172-.926-2.089-2.108-2.089-1.162 0-2.098.936-2.098 2.089 0 1.143.936 2.088 2.098 2.088zm7.359 0c1.143 0 2.079-.945 2.079-2.088 0-1.172-.917-2.089-2.079-2.089-1.153 0-2.089.936-2.089 2.089 0 1.143.936 2.088 2.089 2.088zm7.359 0c1.143 0 2.098-.945 2.098-2.088 0-1.172-.926-2.089-2.098-2.089-1.172 0-2.108.936-2.108 2.089 0 1.143.936 2.088 2.108 2.088z"/>
    </g>
</svg>
