<svg xmlns="http://www.w3.org/2000/svg" width="25" height="24" viewBox="0 0 25 24">
    <defs>
        <linearGradient id="prefix__a" x1="74.172%" x2="19.803%" y1="11.571%" y2="87.963%">
            <stop offset="0%" stop-color="#F78361"/>
            <stop offset="100%" stop-color="#F54B64"/>
        </linearGradient>
    </defs>
    <path fill="url(#prefix__a)" d="M10.198 22c2.4 0 4.046-1.824 4.13-3.836h4.308c1.09 0 1.76-.598 1.76-1.499 0-1.121-1.016-2.075-1.97-2.987-.744-.723-.922-2.17-1.059-3.648-.146-3.95-1.31-6.592-4.035-7.577C12.923 1.059 11.76 0 10.198 0 8.636 0 7.473 1.059 7.075 2.453c-2.736.985-3.889 3.626-4.046 7.577-.136 1.478-.314 2.925-1.059 3.648C1.017 14.59 0 15.544 0 16.665c0 .901.67 1.499 1.76 1.499h4.32C6.151 20.155 7.787 22 10.197 22zm7.62-5.786H2.558v-.125c.272-.304.88-.86 1.393-1.447.724-.828 1.059-2.358 1.164-4.35C5.24 6.09 6.54 4.676 8.217 4.225c.262-.073.399-.2.42-.482.052-1.059.65-1.772 1.561-1.772.923 0 1.51.713 1.562 1.772.02.283.168.409.42.482 1.687.45 2.976 1.866 3.102 6.069.115 1.99.45 3.521 1.163 4.35.514.586 1.1 1.142 1.373 1.446v.125zm-7.62 4.099c-1.184 0-2.033-.85-2.107-2.15h4.224c-.062 1.29-.922 2.15-2.117 2.15z" transform="translate(2 1)"/>
</svg>
