<svg xmlns="http://www.w3.org/2000/svg" width="24" height="24" viewBox="0 0 24 24">
    <path fill="#FFF" d="M11.698 23c2.4 0 4.046-1.824 4.13-3.836h4.308c1.09 0 1.76-.598 1.76-1.499 0-1.121-1.016-2.075-1.97-2.987-.744-.723-.922-2.17-1.059-3.648-.146-3.95-1.31-6.592-4.035-7.577C14.423 2.059 13.26 1 11.698 1c-1.562 0-2.725 1.059-3.123 2.453-2.736.985-3.889 3.626-4.046 7.577-.136 1.478-.314 2.925-1.059 3.648-.953.912-1.97 1.866-1.97 2.987 0 .901.67 1.499 1.76 1.499h4.32C7.651 21.155 9.287 23 11.697 23zm7.62-5.786H4.058v-.125c.272-.304.88-.86 1.393-1.447.724-.828 1.059-2.358 1.164-4.35C6.74 7.09 8.04 5.676 9.717 5.225c.262-.073.399-.2.42-.482.052-1.059.65-1.772 1.561-1.772.923 0 1.51.713 1.562 1.772.02.283.168.409.42.482 1.687.45 2.976 1.866 3.102 6.069.115 1.99.45 3.521 1.163 4.35.514.586 1.1 1.142 1.373 1.446v.125zm-7.62 4.099c-1.184 0-2.033-.85-2.107-2.15h4.224c-.062 1.29-.922 2.15-2.117 2.15z"/>
</svg>
