<svg xmlns="http://www.w3.org/2000/svg" width="24" height="24" viewBox="0 0 24 24">
    <path fill="#FFF" d="M12.006 11.677c2.751 0 4.98-2.434 4.98-5.413 0-2.933-2.229-5.264-4.98-5.264-2.74 0-4.992 2.365-4.98 5.287.011 2.968 2.228 5.39 4.98 5.39zm0-1.99c-1.57 0-2.9-1.49-2.9-3.4-.011-1.865 1.32-3.297 2.9-3.297 1.591 0 2.9 1.41 2.9 3.274 0 1.91-1.32 3.423-2.9 3.423zm7.083 12.564c1.967 0 2.911-.626 2.911-1.967 0-3.127-3.9-7.289-9.994-7.289C5.91 12.995 2 17.157 2 20.284c0 1.341.944 1.967 2.91 1.967h14.18zm.353-1.99H4.558c-.273 0-.375-.091-.375-.296 0-1.74 2.808-4.98 7.823-4.98 5.003 0 7.81 3.24 7.81 4.98 0 .205-.101.296-.374.296z"/>
</svg>
