<svg xmlns="http://www.w3.org/2000/svg" width="44" height="82" viewBox="0 0 44 82">
    <g fill="#FFF">
        <path d="M7.8 56c-.4 0-.8-.3-.8-.8V51h1v4h4v1H7.8zM37 55.2c0 .4-.3.8-.8.8H32v-1h4v-4h1v4.2zM36.2 26c.4 0 .8.3.8.8V31h-1v-4h-4v-1h4.2zM7 26.8c0-.4.3-.8.8-.8H12v1H8v4H7v-4.2z"/>
        <path d="M36 0H8C3.6 0 0 3.6 0 8v66c0 4.4 3.6 8 8 8h28c4.4 0 8-3.6 8-8V8c0-4.4-3.6-8-8-8zm6 74c0 3.3-2.7 6-6 6H8c-3.3 0-6-2.7-6-6V8c0-3.3 2.7-6 6-6h2c.5 0 1 .5 1 1v1c0 1.1.9 2 2 2h18c1.1 0 2-.9 2-2V3c0-.5.5-1 1-1h2c3.3 0 6 2.7 6 6v66z"/>
        <path d="M11 30v22h22V30H11zm8 2v6h-6v-6h6zm12 18H13V40h8v-8h10v18z"/>
        <path d="M15 34H17V36H15zM19 46H21V48H19zM15 42H21V44H15zM15 46H17V48H15zM23 34L23 38 25 38 25 36 29 36 29 34zM29 48L23 48 23 46 27 46 27 44 29 44zM23 40H25V44H23zM27 38H29V42H27z"/>
    </g>
</svg>
