<svg xmlns="http://www.w3.org/2000/svg" xmlns:xlink="http://www.w3.org/1999/xlink" width="40" height="40" viewBox="0 0 40 40">
    <defs>
        <path id="prefix__a" d="M8.673 0c.794 0 1.531.415 1.945 1.098l6.424 10.723c.404.7.406 1.56.006 2.262s-1.142 1.139-1.958 1.148H2.247c-.807-.01-1.55-.446-1.95-1.148-.4-.701-.397-1.562.013-2.272L6.727 1.098C7.141.415 7.878 0 8.673 0zm0 1.515c-.264 0-.51.138-.647.364l-6.41 10.7c-.135.233-.135.52-.002.754.133.234.38.38.642.383h12.826c.269-.003.516-.149.65-.383.133-.234.132-.52.004-.743L9.32 1.88c-.138-.226-.383-.365-.648-.365zm-.536 8.634c.296-.296.776-.296 1.072 0 .295.296.295.776 0 1.072-.296.296-.776.296-1.072 0-.296-.296-.296-.776 0-1.072zm.536-5.525c.418 0 .757.339.757.757v3.031c0 .418-.339.758-.757.758-.419 0-.758-.34-.758-.758v-3.03c0-.42.34-.758.758-.758z"/>
    </defs>
    <g fill="none" fill-rule="evenodd" transform="translate(11 12)">
        <use fill="#FFF" fill-rule="nonzero" xlink:href="#prefix__a"/>
    </g>
</svg>
