<svg xmlns="http://www.w3.org/2000/svg" xmlns:xlink="http://www.w3.org/1999/xlink" width="40" height="40" viewBox="0 0 40 40">
    <defs>
        <filter id="prefix__b" width="189.8%" height="212.5%" x="-44.9%" y="-56.2%" filterUnits="objectBoundingBox">
            <feOffset in="SourceAlpha" result="shadowOffsetOuter1"/>
            <feGaussianBlur in="shadowOffsetOuter1" result="shadowBlurOuter1" stdDeviation="3"/>
            <feColorMatrix in="shadowBlurOuter1" values="0 0 0 0 0 0 0 0 0 0 0 0 0 0 0 0 0 0 0.5 0"/>
        </filter>
        <path id="prefix__a" d="M16.71 14.014l-.006.004-.002.002-.045.037-.048.034-.05.03c-.057.032-.117.057-.18.075l-.015.004c-.07.018-.143.028-.218.028-.15 0-.293-.04-.416-.109l-.043-.025c-.019-.013-.037-.025-.055-.039l-.026-.02-.057-.051-.016-.017-3.026-3.111c-.339-.348-.339-.912 0-1.26.338-.348.887-.348 1.225 0l1.547 1.59V1.782H7.067c-.478 0-.866-.399-.866-.891S6.589 0 7.067 0h9.079c.478 0 .866.399.866.891v10.296l1.547-1.591c.339-.348.887-.348 1.226 0 .338.348.338.912 0 1.26l-3.027 3.111-.02.02-.018.016-.012.011.006-.005-.005.005zM3.322 1.991l.006-.005-.005.004.011-.01.046-.037.049-.034.05-.03c.057-.032.117-.057.18-.075l.015-.004c.069-.018.142-.028.218-.028.15 0 .292.04.415.109l.043.025c.02.013.037.025.055.039l.026.02c.02.017.04.034.057.051l.016.017 3.027 3.111c.338.348.338.912 0 1.26-.339.348-.888.348-1.226 0L4.76 4.814v9.404h8.212c.479 0 .867.399.867.891S13.45 16 12.97 16H3.893c-.479 0-.867-.399-.867-.891V4.813L1.479 6.404c-.338.348-.887.348-1.225 0-.339-.348-.339-.912 0-1.26L3.28 2.033l.016-.017.004-.004.023-.02z"/>
    </defs>
    <g fill="none" fill-rule="evenodd" transform="translate(9.5 12)">
        <g fill-rule="nonzero">
            <use fill="#000" filter="url(#prefix__b)" xlink:href="#prefix__a"/>
            <use fill="#FFF" xlink:href="#prefix__a"/>
        </g>
    </g>
</svg>
