<svg xmlns="http://www.w3.org/2000/svg" width="25" height="25" viewBox="0 0 25 25">
    <defs>
        <linearGradient id="prefix__a" x1="78.122%" x2="14.868%" y1="11.571%" y2="87.963%">
            <stop offset="0%" stop-color="#F78361"/>
            <stop offset="100%" stop-color="#F54B64"/>
        </linearGradient>
    </defs>
    <path fill="url(#prefix__a)" d="M11.013 1.9c2.434 0 4.723.948 6.444 2.67 3.235 3.234 3.55 8.372.798 11.97l-.124.156 3.672 3.672c.335.335.387.847.155 1.236l-.07.103-.085.096c-.191.191-.448.297-.717.297-.225 0-.44-.074-.617-.209l-.1-.088-3.672-3.671-.175.14c-1.398 1.065-3.056 1.694-4.805 1.827l-.351.02-.353.007c-2.434 0-4.723-.948-6.444-2.67-1.72-1.72-2.669-4.01-2.669-6.443 0-2.434.948-4.723 2.67-6.444C6.29 2.85 8.58 1.9 11.012 1.9zm0 2.029c-1.893 0-3.67.736-5.01 2.075C4.666 7.342 3.93 9.12 3.93 11.014c0 1.892.736 3.67 2.075 5.008 1.338 1.339 3.116 2.075 5.01 2.075 1.892 0 3.67-.736 5.008-2.075 2.762-2.762 2.762-7.256 0-10.018-1.338-1.339-3.116-2.075-5.009-2.075z" transform="translate(.114 .9)"/>
</svg>
