<svg xmlns="http://www.w3.org/2000/svg" width="24" height="24" viewBox="0 0 24 24">
    <path fill="#FFF" d="M18.654 20c.69 0 1.196-.54 1.196-1.222 0-.316-.108-.623-.34-.856l-3.616-3.632c.748-1.056 1.189-2.352 1.189-3.749C17.083 6.942 14.14 4 10.54 4 6.942 4 4 6.942 4 10.541c0 3.6 2.942 6.542 6.541 6.542 1.322 0 2.56-.4 3.59-1.08l3.641 3.648c.242.233.549.349.882.349zm-8.113-4.663c-2.635 0-4.796-2.16-4.796-4.796 0-2.626 2.161-4.796 4.796-4.796 2.635 0 4.796 2.17 4.796 4.796 0 2.635-2.16 4.796-4.796 4.796z" opacity=".4"/>
</svg>
