<svg xmlns="http://www.w3.org/2000/svg" width="25" height="25" viewBox="0 0 25 25">
    <path fill="#FFF" d="M11.227 2.8c2.434 0 4.724.948 6.444 2.67 3.235 3.234 3.55 8.372.799 11.97l-.125.156 3.672 3.672c.335.335.387.847.155 1.236l-.07.103-.085.096c-.19.191-.448.297-.717.297-.224 0-.44-.074-.617-.209l-.1-.088-3.672-3.671-.175.14c-1.398 1.065-3.056 1.694-4.805 1.827l-.35.02-.354.007c-2.433 0-4.723-.948-6.444-2.67-1.72-1.72-2.669-4.01-2.669-6.443 0-2.434.949-4.723 2.67-6.444C6.503 3.75 8.793 2.8 11.226 2.8zm0 2.029c-1.893 0-3.67.736-5.009 2.075-1.338 1.338-2.075 3.116-2.075 5.01 0 1.892.737 3.67 2.075 5.008 1.339 1.339 3.116 2.075 5.01 2.075 1.892 0 3.67-.736 5.009-2.075 2.761-2.762 2.761-7.256 0-10.018-1.339-1.339-3.117-2.075-5.01-2.075z"/>
</svg>
