<svg xmlns="http://www.w3.org/2000/svg" width="40" height="40" viewBox="0 0 40 40">
    <path fill="#FFF" d="M33.555 33.574c.497-.511.482-1.257 0-1.739L8.14 6.42c-.482-.482-1.271-.482-1.753 0-.468.468-.468 1.272 0 1.74l25.429 25.414c.482.482 1.271.497 1.739 0zm-.395-4.91c4.268-2.952 6.84-6.81 6.84-8.491 0-2.967-7.877-12.715-20.007-12.715-2.485 0-4.794.424-6.898 1.11l4.384 4.385c.79-.292 1.637-.453 2.528-.453 4.253 0 7.717 3.405 7.717 7.673 0 .906-.161 1.753-.468 2.543l5.904 5.948zm-13.167 4.223c2.616 0 5.027-.453 7.19-1.198l-4.414-4.414c-.833.38-1.783.57-2.762.57-4.267 0-7.73-3.507-7.73-7.672 0-.994.19-1.959.57-2.821l-5.788-5.787C2.63 14.546 0 18.477 0 20.173c0 2.952 8.023 12.714 19.993 12.714zm4.706-12.714l.014-.293c0-2.528-2.046-4.589-4.589-4.589-.102 0-.19.015-.292.03l4.867 4.852zm-4.867 4.516c.117 0 .205-.015.321-.015l-4.895-4.896c-.015.102-.015.22-.015.322 0 2.528 2.075 4.589 4.589 4.589z"/>
</svg>
