<svg xmlns="http://www.w3.org/2000/svg" xmlns:xlink="http://www.w3.org/1999/xlink" width="40" height="40" viewBox="0 0 40 40">
    <defs>
        <filter id="prefix__a" width="215.7%" height="212.5%" x="-57.9%" y="-56.2%" filterUnits="objectBoundingBox">
            <feOffset in="SourceAlpha" result="shadowOffsetOuter1"/>
            <feGaussianBlur in="shadowOffsetOuter1" result="shadowBlurOuter1" stdDeviation="3"/>
            <feColorMatrix in="shadowBlurOuter1" values="0 0 0 0 0 0 0 0 0 0 0 0 0 0 0 0 0 0 0.5 0"/>
        </filter>
        <path id="prefix__b" d="M9.665 10.733l-2.932-1.54c.149-.348.199-.746.199-1.143 0-.448-.1-.895-.249-1.292l2.833-1.49c.596.893 1.64 1.49 2.832 1.49 1.888 0 3.379-1.54 3.379-3.38 0-1.838-1.54-3.378-3.38-3.378C10.46 0 8.97 1.54 8.97 3.379c0 .149 0 .298.05.447l-3.18 1.64c-.597-.547-1.392-.895-2.237-.895-1.888 0-3.378 1.54-3.378 3.38 0 1.838 1.54 3.378 3.378 3.378.945 0 1.74-.348 2.386-.994l3.13 1.59c-.05.249-.1.448-.1.696 0 1.888 1.541 3.379 3.38 3.379 1.888 0 3.378-1.54 3.378-3.379 0-1.838-1.59-3.23-3.428-3.23-1.093 0-2.037.497-2.683 1.342zm2.683-9.193c.298 0 .596.1.845.2.447.198.795.595.944 1.043.05.198.099.397.099.596 0 1.043-.845 1.888-1.888 1.888-.596 0-1.143-.298-1.49-.696-.25-.347-.448-.745-.448-1.192 0-.1 0-.199.05-.298.149-.845.944-1.54 1.888-1.54zm-7.9 8.15c-.25.149-.597.248-.895.248-1.044 0-1.888-.845-1.888-1.888 0-1.044.844-1.889 1.888-1.889.248 0 .546.05.745.15.497.198.845.646 1.044 1.142.05.2.099.398.099.597 0 .149 0 .298-.05.447-.149.497-.497.944-.944 1.192zm9.689 3.527c-.1.398-.348.795-.696 1.044-.298.248-.696.397-1.143.397-1.043 0-1.888-.844-1.888-1.888 0-.546.199-.994.596-1.341.348-.348.795-.547 1.292-.547 1.044 0 1.888.845 1.888 1.888.05.15 0 .298-.05.447z"/>
    </defs>
    <g fill="none" transform="translate(11 12)">
        <use fill="#000" filter="url(#prefix__a)" xlink:href="#prefix__b"/>
        <use fill="#FFF" xlink:href="#prefix__b"/>
    </g>
</svg>
