<svg xmlns="http://www.w3.org/2000/svg" width="40" height="40" viewBox="0 0 40 40">
    <g fill="none" fill-rule="evenodd" transform="translate(4 4)">
        <circle cx="16" cy="16" r="16" fill="#000" fill-opacity=".5"/>
        <path fill="#FFF" fill-rule="nonzero" d="M16.441 18.733l-2.932-1.54c.15-.348.2-.746.2-1.143 0-.448-.1-.895-.25-1.292l2.833-1.49c.596.893 1.64 1.49 2.832 1.49 1.888 0 3.38-1.54 3.38-3.38C22.503 9.54 20.962 8 19.123 8c-1.888 0-3.379 1.54-3.379 3.379 0 .149 0 .298.05.447l-3.18 1.64c-.596-.547-1.391-.895-2.236-.895-1.888 0-3.379 1.54-3.379 3.38 0 1.838 1.54 3.378 3.379 3.378.944 0 1.739-.348 2.385-.994l3.13 1.59c-.05.249-.099.448-.099.696 0 1.888 1.54 3.379 3.379 3.379 1.888 0 3.379-1.54 3.379-3.379 0-1.838-1.59-3.23-3.429-3.23-1.093 0-2.037.497-2.683 1.342zm2.683-9.193c.298 0 .596.1.845.2.447.198.795.595.944 1.043.05.198.1.397.1.596 0 1.043-.845 1.888-1.889 1.888-.596 0-1.143-.298-1.49-.696-.249-.347-.448-.745-.448-1.192 0-.1 0-.199.05-.298.15-.845.944-1.54 1.888-1.54zm-7.9 8.15c-.249.149-.597.248-.895.248-1.043 0-1.888-.845-1.888-1.888 0-1.044.845-1.889 1.888-1.889.249 0 .547.05.746.15.496.198.844.646 1.043 1.142.05.2.1.398.1.597 0 .149 0 .298-.05.447-.15.497-.497.944-.944 1.192zm9.689 3.527c-.1.398-.348.795-.696 1.044-.298.248-.695.397-1.142.397-1.044 0-1.889-.844-1.889-1.888 0-.546.2-.994.597-1.341.347-.348.795-.547 1.292-.547 1.043 0 1.888.845 1.888 1.888.05.15 0 .298-.05.447z"/>
    </g>
</svg>
