<svg xmlns="http://www.w3.org/2000/svg" width="24" height="24" viewBox="0 0 24 24">
    <g fill="#FFF">
        <path stroke="#FFF" stroke-width=".5" d="M20.234 6.108c-.087-1.158-.695-2.142-1.592-2.75C18.497 1.476 16.934 0 15.024 0H6.803c-1.91 0-3.474 1.476-3.619 3.358-.897.608-1.505 1.592-1.592 2.75C.637 6.745 0 7.874 0 9.118v8.25c0 1.998 1.621 3.619 3.618 3.619h14.619c1.997 0 3.618-1.621 3.618-3.619V9.09c-.029-1.244-.666-2.344-1.62-2.981zm.145 11.26c0 1.187-.984 2.171-2.171 2.171H3.618c-1.186 0-2.17-.984-2.17-2.17v-8.28c0-1.186.984-2.17 2.17-2.17h14.619c1.187 0 2.17.984 2.17 2.17v8.28h-.028zM6.803 1.418h8.25c.897 0 1.679.55 1.997 1.332-.145-.029-.26-.029-.405-.029H5.21c-.145 0-.261 0-.406.029.319-.782 1.1-1.332 1.998-1.332zM5.21 4.168h11.434c.897 0 1.679.55 1.997 1.332-.145-.029-.26-.029-.405-.029H3.618c-.144 0-.26 0-.405.029.319-.782 1.1-1.332 1.998-1.332z" transform="translate(1 1.5)"/>
        <path d="M14.59 13.721c.376-.232.376-.782 0-1.013L8.683 9.32c-.376-.232-.868.058-.868.492v6.832c0 .434.492.723.868.492l5.905-3.416z" transform="translate(1 1.5)"/>
    </g>
</svg>
