<svg xmlns="http://www.w3.org/2000/svg" width="41" height="40" viewBox="0 0 41 40">
    <g fill="none" fill-rule="evenodd">
        <circle cx="20" cy="20" r="20" fill="#000" fill-opacity=".2"/>
        <path fill="#FFF" fill-rule="nonzero" d="M24.092 29.811c1.22 0 1.937-.645 1.99-1.866l.575-12.749h1.292c.442 0 .788-.345.788-.787 0-.434-.346-.779-.788-.779h-3.928v-1.203c0-1.363-.938-2.238-2.442-2.238h-3.158c-1.504 0-2.442.875-2.442 2.238v1.203h-3.928c-.434 0-.788.345-.788.779 0 .442.354.787.788.787h1.31l.565 12.749c.054 1.22.77 1.866 1.991 1.866h8.175zm-1.717-16.18h-4.733v-1.125c0-.486.363-.831.885-.831h2.955c.522 0 .885.345.885.831l.008 1.124zM16.89 27.333c-.336 0-.584-.292-.601-.69l-.363-9.546c-.009-.39.265-.69.61-.69.337 0 .61.31.628.681l.337 9.546c.009.39-.248.7-.61.7zm3.114 0c-.336 0-.628-.31-.628-.69V17.09c0-.371.292-.68.628-.68.337 0 .637.309.637.68l-.008 9.555c0 .38-.292.69-.629.69zm3.115 0c-.363 0-.62-.31-.61-.699l.344-9.546c.009-.371.292-.68.628-.68.345 0 .62.3.61.69l-.37 9.545c-.01.398-.266.69-.602.69z"/>
    </g>
</svg>
