<svg xmlns="http://www.w3.org/2000/svg" width="40" height="40" viewBox="0 0 40 40">
    <g fill="none" fill-rule="evenodd" transform="translate(4 4)">
        <circle cx="16" cy="16" r="16" fill="#1EA1F1"/>
        <path fill="#FFF" fill-rule="nonzero" d="M24.09 11.07c-.371.159-.757.284-1.152.374.436-.398.763-.896.948-1.452.053-.159-.126-.296-.275-.211-.55.314-1.143.55-1.762.7-.036.008-.073.013-.11.013-.113 0-.222-.04-.309-.113-.658-.558-1.504-.866-2.383-.866-.38 0-.765.057-1.142.17-1.168.348-2.07 1.275-2.352 2.419-.106.428-.135.858-.086 1.275.006.048-.018.082-.032.098-.026.027-.062.043-.1.043h-.012c-2.558-.23-4.864-1.414-6.494-3.337-.083-.098-.242-.086-.308.023-.32.527-.488 1.13-.488 1.742 0 .94.392 1.825 1.074 2.47-.287-.065-.564-.168-.822-.306-.125-.066-.278.02-.28.157-.018 1.395.832 2.637 2.104 3.196h-.077c-.201 0-.406-.018-.607-.055-.14-.026-.258.102-.214.233.413 1.24 1.523 2.155 2.852 2.362-1.103.712-2.387 1.088-3.724 1.088h-.416c-.129 0-.237.08-.27.2-.032.118.027.242.136.303 1.507.843 3.225 1.289 4.97 1.289 1.527 0 2.956-.292 4.246-.867 1.183-.527 2.228-1.28 3.107-2.239.819-.893 1.459-1.924 1.902-3.064.423-1.087.647-2.247.647-3.354v-.053c0-.178.084-.345.23-.459.553-.432 1.035-.94 1.432-1.512.105-.151-.06-.34-.233-.266z"/>
    </g>
</svg>
