<svg xmlns="http://www.w3.org/2000/svg" width="31" height="31" viewBox="0 0 31 31">
    <path fill="#FFF" d="M10.026 6.838c-.504 0-.912-.408-.912-.912 0-.503.408-.911.912-.911h17.33C29.37 5.015 31 6.648 31 8.665V25.07c0 2.014-1.633 3.65-3.644 3.65H6.38c-2.014 0-3.644-1.633-3.644-3.65V12.31c0-.503.409-.911.912-.911.504 0 .912.408.912.912V25.07c0 1.01.814 1.826 1.82 1.826h20.977c1.004 0 1.82-.818 1.82-1.826V8.665c0-1.011-.814-1.827-1.82-1.827h-17.33zm5.635 13.46l4.186-4.507c.36-.388.975-.388 1.336 0l5.926 6.383c.343.369.322.946-.047 1.288-.37.343-.946.322-1.289-.047l-5.258-5.663-5.259 5.663c-.342.369-.92.39-1.288.047-.37-.342-.39-.92-.048-1.288l.5-.539-.02-.02-2.516-2.515-3.915 4.307c-.339.373-.916.4-1.288.062-.373-.339-.4-.916-.062-1.288l4.56-5.015c.35-.385.95-.4 1.319-.031l3.163 3.163zM2.735 5.015V3.19c0-.503.409-.912.912-.912.504 0 .912.409.912.912v1.824h1.823c.504 0 .912.408.912.911 0 .504-.408.912-.912.912H4.56v1.824c0 .503-.408.912-.912.912-.503 0-.912-.409-.912-.912V6.838H.912C.408 6.838 0 6.43 0 5.926c0-.503.408-.911.912-.911h1.823zm9.118 10.03c-1.51 0-2.735-1.226-2.735-2.736 0-1.51 1.224-2.735 2.735-2.735 1.51 0 2.735 1.224 2.735 2.735 0 1.51-1.224 2.735-2.735 2.735zm0-1.824c.503 0 .912-.409.912-.912 0-.504-.409-.912-.912-.912-.504 0-.912.408-.912.912 0 .503.408.912.912.912z"/>
</svg>
