<svg xmlns="http://www.w3.org/2000/svg" width="40" height="40" viewBox="0 0 40 40">
    <path fill="#FFF" d="M13.6 16.8v-2.4c0-.442.358-.8.8-.8h2.4c.442 0 .8-.358.8-.8 0-.442-.358-.8-.8-.8h-2.4c-1.325 0-2.4 1.075-2.4 2.4v2.4c0 .442.358.8.8.8.442 0 .8-.358.8-.8zm9.6-3.2h2.4c.442 0 .8.358.8.8v2.4c0 .442.358.8.8.8.442 0 .8-.358.8-.8v-2.4c0-1.325-1.075-2.4-2.4-2.4h-2.4c-.442 0-.8.358-.8.8 0 .442.358.8.8.8zm3.2 9.6v2.4c0 .442-.358.8-.8.8h-2.4c-.442 0-.8.358-.8.8 0 .442.358.8.8.8h2.4c1.325 0 2.4-1.075 2.4-2.4v-2.4c0-.442-.358-.8-.8-.8-.442 0-.8.358-.8.8zm-9.6 3.2h-2.4c-.442 0-.8-.358-.8-.8v-2.4c0-.442-.358-.8-.8-.8-.442 0-.8.358-.8.8v2.4c0 1.325 1.075 2.4 2.4 2.4h2.4c.442 0 .8-.358.8-.8 0-.442-.358-.8-.8-.8z"/>
</svg>
