<svg xmlns="http://www.w3.org/2000/svg" xmlns:xlink="http://www.w3.org/1999/xlink" width="40" height="40" viewBox="0 0 40 40">
    <defs>
        <filter id="prefix__a" width="184.1%" height="180.8%" x="-42.1%" y="-40.4%" filterUnits="objectBoundingBox">
            <feOffset in="SourceAlpha" result="shadowOffsetOuter1"/>
            <feGaussianBlur in="shadowOffsetOuter1" result="shadowBlurOuter1" stdDeviation="3"/>
            <feColorMatrix in="shadowBlurOuter1" values="0 0 0 0 0 0 0 0 0 0 0 0 0 0 0 0 0 0 0.5 0"/>
        </filter>
        <path id="prefix__b" d="M2.28.422l.032.033 18.975 19.864c.37.387.37.995 0 1.382l-.399.418c-.381.4-1.014.414-1.414.032l-.032-.032L.466 2.254c-.369-.386-.369-.995 0-1.381l.4-.418C1.245.055 1.88.04 2.278.422zm-.03 6.084l1.949 2.04H3.055c-.34 0-.522.156-.555.475l-.005.112v4.623c0 .355.148.546.452.58l.108.007h3.49c.273 0 .472.043.69.22l.096.084 4.47 4.229c.054.056.119.09.172.09.078 0 .135-.044.155-.119l.007-.062v-1.93l2.132 2.231v1.323c0 .817-.553 1.445-1.318 1.516l-.146.006c-.524 0-.942-.21-1.445-.646l-.17-.154-4.913-4.6c-.056-.052-.113-.083-.178-.096l-.07-.006H2.85c-1.585 0-2.422-.824-2.484-2.521L.362 13.7V9.19c0-1.6.636-2.482 1.887-2.684zm17.917.122c.894 1.286 1.422 3.056 1.422 4.906 0 1.838-.528 3.63-1.422 4.893-.089.127-.194.229-.31.305l-1.48-1.55c.032-.065.068-.132.11-.198.592-.88.958-2.154.958-3.45 0-1.286-.355-2.571-.948-3.45-.441-.677-.334-1.354.216-1.749.474-.327 1.098-.214 1.454.293zM12.792.935c.804 0 1.406.624 1.47 1.434l.006.145-.001 8.363-2.132-2.23V4.07c0-.081-.048-.14-.112-.161l-.05-.008c-.043 0-.086.02-.126.047l-.057.043L9.64 6.033l-1.42-1.487 2.968-2.765c.568-.523.95-.794 1.45-.839l.155-.007z"/>
    </defs>
    <g fill="none" transform="translate(8.664 8.24)">
        <use fill="#000" filter="url(#prefix__a)" xlink:href="#prefix__b"/>
        <use fill="#FFF" xlink:href="#prefix__b"/>
    </g>
</svg>
