<svg xmlns="http://www.w3.org/2000/svg" width="40" height="40" viewBox="0 0 40 40">
    <path fill="#FFF" d="M13.872 23.59h2.391c.073 0 .13.025.187.074l3.696 3.307c.438.389.778.575 1.216.575.632 0 1.102-.47 1.102-1.094V13.589c0-.633-.47-1.135-1.11-1.135-.438 0-.738.194-1.208.608l-3.696 3.29c-.057.05-.114.074-.187.074h-2.39c-1.24 0-1.873.64-1.873 1.961v3.242c0 1.321.632 1.962 1.872 1.962zm.154-1.499c-.283 0-.421-.138-.421-.421v-3.323c0-.284.138-.422.421-.422h2.626c.202 0 .35-.03.51-.156L20.6 14.65c.04-.032.089-.064.138-.064.064 0 .121.048.121.121v10.578c0 .08-.048.13-.121.13-.04 0-.09-.025-.13-.065l-3.364-3.04c-.194-.178-.356-.219-.592-.219h-2.626zm11.81 1.63c-.414-.276-.486-.763-.17-1.249.445-.632.721-1.548.721-2.48 0-.924-.267-1.848-.713-2.48-.333-.487-.252-.973.162-1.257.357-.235.827-.154 1.094.211.673.924 1.07 2.197 1.07 3.526 0 1.321-.397 2.61-1.07 3.518-.267.364-.737.445-1.094.21z"/>
</svg>
