<?xml version="1.0" encoding="UTF-8"?>
<svg width="16px" height="16px" viewBox="0 0 16 16" version="1.1" xmlns="http://www.w3.org/2000/svg" xmlns:xlink="http://www.w3.org/1999/xlink">
    <!-- Generator: Sketch 53 (72520) - https://sketchapp.com -->
    <title>Instagram</title>
    <desc>Created with Sketch.</desc>
    <g id="Page-1" stroke="none" stroke-width="1" fill="none" fill-rule="evenodd">
        <g id="Desktop-HD" transform="translate(-424.000000, -967.000000)" fill="#FFFFFF">
            <g id="Group-12" transform="translate(379.000000, 966.000000)">
                <g id="Instagram" transform="translate(45.084500, 1.138900)">
                    <g transform="translate(0.000000, -0.000000)">
                        <path d="M4.67,1.281 C2.801,1.281 1.28,2.802 1.28,4.67 L1.28,10.846 C1.28,12.716 2.801,14.236 4.67,14.236 L10.847,14.236 C12.715,14.236 14.236,12.716 14.236,10.846 L14.236,4.67 C14.236,2.802 12.715,1.281 10.847,1.281 L4.67,1.281 Z M10.847,15.517 L4.67,15.517 C3.422,15.517 2.25,15.031 1.368,14.149 C0.485,13.267 -8.70414851e-14,12.094 -8.70414851e-14,10.846 L-8.70414851e-14,4.67 C-8.70414851e-14,3.423 0.485,2.25 1.368,1.368 C2.25,0.486 3.422,-3.01980663e-14 4.67,-3.01980663e-14 L10.847,-3.01980663e-14 C12.094,-3.01980663e-14 13.267,0.486 14.149,1.368 C15.031,2.25 15.517,3.423 15.517,4.67 L15.517,10.846 C15.517,12.094 15.031,13.267 14.149,14.149 C13.267,15.031 12.094,15.517 10.847,15.517 L10.847,15.517 Z" id="Fill-6"></path>
                        <path d="M7.7584,5.0798 C6.2814,5.0798 5.0794,6.2808 5.0794,7.7588 C5.0794,9.2348 6.2814,10.4368 7.7584,10.4368 C9.2354,10.4368 10.4374,9.2348 10.4374,7.7588 C10.4374,6.2808 9.2354,5.0798 7.7584,5.0798 M7.7584,11.7178 C5.5754,11.7178 3.7994,9.9408 3.7994,7.7588 C3.7994,5.5748 5.5754,3.7998 7.7584,3.7998 C9.9414,3.7998 11.7174,5.5748 11.7174,7.7588 C11.7174,9.9408 9.9414,11.7178 7.7584,11.7178" id="Fill-8"></path>
                        <path d="M12.5977,3.6795 C12.5977,4.0995 12.2577,4.4395 11.8377,4.4395 C11.4177,4.4395 11.0767,4.0995 11.0767,3.6795 C11.0767,3.2595 11.4177,2.9185 11.8377,2.9185 C12.2577,2.9185 12.5977,3.2595 12.5977,3.6795" id="Fill-10"></path>
                    </g>
                </g>
            </g>
        </g>
    </g>
</svg>