<?xml version="1.0" encoding="UTF-8"?>
<svg width="70px" height="69px" viewBox="0 0 70 69" version="1.1" xmlns="http://www.w3.org/2000/svg" xmlns:xlink="http://www.w3.org/1999/xlink">
    <!-- Generator: Sketch 53 (72520) - https://sketchapp.com -->
    <title>Group</title>
    <desc>Created with Sketch.</desc>
    <defs>
        <path d="M35.1835849,0.225660377 C16.2003774,0.225660377 0.810943396,15.6137736 0.810943396,34.5969811 L0.810943396,34.5969811 C0.810943396,53.5801887 16.2003774,68.9696226 35.1835849,68.9696226 L35.1835849,68.9696226 C54.1667925,68.9696226 69.5549057,53.5801887 69.5549057,34.5969811 L69.5549057,34.5969811 C69.5549057,15.6137736 54.1667925,0.225660377 35.1835849,0.225660377 Z" id="path-1"></path>
        <linearGradient x1="99.9993003%" y1="-0.000525082134%" x2="0.000876481777%" y2="99.9978987%" id="linearGradient-3">
            <stop stop-color="#F47E1F" offset="0%"></stop>
            <stop stop-color="#EB2885" offset="100%"></stop>
        </linearGradient>
    </defs>
    <g id="Page-1" stroke="none" stroke-width="1" fill="none" fill-rule="evenodd">
        <g id="Reveal" transform="translate(-67.000000, -67.000000)">
            <g id="Group-12" transform="translate(47.000000, 67.000000)">
                <g id="Group" transform="translate(20.000000, 0.000000)">
                    <g id="Group-3">
                        <mask id="mask-2" fill="white">
                            <use xlink:href="#path-1"></use>
                        </mask>
                        <g id="Clip-2"></g>
                        <path d="M35.1835849,0.225660377 C16.2003774,0.225660377 0.810943396,15.6137736 0.810943396,34.5969811 L0.810943396,34.5969811 C0.810943396,53.5801887 16.2003774,68.9696226 35.1835849,68.9696226 L35.1835849,68.9696226 C54.1667925,68.9696226 69.5549057,53.5801887 69.5549057,34.5969811 L69.5549057,34.5969811 C69.5549057,15.6137736 54.1667925,0.225660377 35.1835849,0.225660377 Z" id="Fill-1" fill="url(#linearGradient-3)" mask="url(#mask-2)"></path>
                    </g>
                    <g id="Group-11" transform="translate(18.000000, 18.000000)" fill="#FFFFFF">
                        <path d="M33.8574696,10.9622364 C33.7646435,7.17905455 30.5727522,4.17491818 26.7443391,4.26587273 L26.743013,4.26587273 L26.7390348,4.26587273 C21.1853826,4.39900909 19.1631,9.69546364 18.9416435,10.3295091 C16.5719261,15.7248273 12.0486435,16.2600091 10.4347957,16.2705545 C10.3552304,16.2547364 10.273013,16.2639636 10.1868174,16.2626455 C10.0475783,16.2613273 9.90701304,16.2494636 9.77042609,16.2441909 C9.76114348,16.2428727 9.75053478,16.2428727 9.74125217,16.2428727 C6.07462174,16.1031455 3.09225217,13.1596455 3.00207826,9.48719091 C2.90925217,5.66578182 5.97914348,2.48369091 9.84601304,2.39141818 C10.4294913,2.37691818 11.0010348,2.43491818 11.5579913,2.55882727 C12.6732304,2.82114545 15.7126217,3.83350909 17.2190565,7.27264545 C17.3980783,7.6826 17.8038609,7.92514545 18.2282087,7.92119091 C18.3701,7.91987273 18.5133174,7.89219091 18.6499043,7.83287273 C19.2028826,7.59691818 19.4561652,6.96419091 19.2174696,6.41846364 C17.8303826,3.25087273 15.427513,1.71519091 13.6505565,0.982281818 C13.6187304,0.965145455 13.5855783,0.949327273 13.5524261,0.936145455 C13.0538174,0.730509091 12.5432739,0.572327273 12.0234478,0.457645455 C11.9080783,0.431281818 11.8072957,0.411509091 11.7224261,0.394372727 C11.7184478,0.393054545 11.7144696,0.393054545 11.7104913,0.391736364 C11.5381,0.3601 11.4293609,0.3456 11.400187,0.341645455 C11.3948826,0.340327273 11.3895783,0.340327273 11.3829478,0.340327273 C10.8604696,0.263872727 10.3300348,0.228281818 9.79429565,0.241463636 C4.72731739,0.362736364 0.703969565,4.53346364 0.827295652,9.5386 C0.945317391,14.3552364 4.8586,18.2148727 9.66964348,18.3915091 C9.79562174,18.4033727 10.1125565,18.4257818 10.5713826,18.4139182 C11.3776435,18.3954636 12.6122304,18.2728727 13.9900348,17.8088727 C16.1634913,17.0772818 19.1365783,15.3254182 20.9572957,11.1401909 C20.9718826,11.1098727 20.9838174,11.0782364 20.9931,11.0466 C21.009013,11.0017818 22.5313609,6.51732727 26.7920783,6.41582727 L26.7960565,6.41582727 C29.425687,6.35255455 31.6177087,8.41550909 31.6813609,11.0149636 C31.745013,13.6131 29.6537739,15.7946909 27.0228174,15.8579636 C26.9657957,15.8592818 26.9140783,15.8487364 26.8597087,15.8579636 C26.4234261,15.8816909 24.4873391,15.8500545 23.0392522,13.5841 C22.7183391,13.0818727 22.046013,12.9316 21.5381217,13.2492818 C21.0302304,13.5656455 20.8777304,14.2300091 21.1986435,14.7322364 C23.1267739,17.7508727 25.8160783,18.0224182 26.8424696,18.0079182 C27.046687,18.0039636 27.1846,17.9894636 27.2376435,17.9828727 C30.9931217,17.8088727 33.9489696,14.6940091 33.8574696,10.9622364" id="Fill-4"></path>
                        <path d="M33.8930087,19.1209909 L29.260987,21.3579455 L29.260987,21.0916727 C29.260987,20.4932182 28.774313,20.0081273 28.1722696,20.0081273 C28.0820957,20.0081273 27.9945739,20.0213091 27.9097043,20.0410818 C21.7367696,20.8319909 19.2596391,16.5334 19.2596391,16.5334 C17.5861174,18.5475818 15.2548565,19.5797182 13.3055087,20.1083091 C6.30111739,21.5477636 2.75781304,17.7052636 2.75781304,17.7052636 C2.43557391,17.4047182 1.91309565,17.4811727 1.91309565,17.4811727 C1.82159565,17.4811727 1.73274783,17.4943545 1.64787826,17.5154455 C1.17446522,17.6327636 0.824378261,18.0572182 0.824378261,18.5647182 L0.824378261,32.0497182 C0.824378261,33.8411273 2.28970435,35.2977182 4.09185652,35.2977182 L25.9935087,35.2977182 C27.7956609,35.2977182 29.260987,33.8411273 29.260987,32.0497182 L29.260987,30.8000818 L34.110487,32.8669909 C34.2484,32.9263091 34.3942696,32.9553091 34.5401391,32.9553091 C34.7496609,32.9553091 34.9591826,32.8946727 35.1395304,32.7760364 C35.4445304,32.5756727 35.6288565,32.2355818 35.6288565,31.8717636 L35.6288565,20.1399455 C35.6288565,19.6799 35.3397696,19.2870818 34.9313348,19.1315364 C34.6170522,18.9733545 34.233813,18.9562182 33.8930087,19.1209909" id="Fill-6"></path>
                    </g>
                </g>
            </g>
        </g>
    </g>
</svg>