<?xml version="1.0" encoding="UTF-8"?>
<svg width="121px" height="104px" viewBox="0 0 121 104" version="1.1" xmlns="http://www.w3.org/2000/svg" xmlns:xlink="http://www.w3.org/1999/xlink">
    <!-- Generator: Sketch 53 (72520) - https://sketchapp.com -->
    <title>Group 12</title>
    <desc>Created with Sketch.</desc>
    <defs>
        <polygon id="path-1" points="0 0.857740909 120.734913 0.857740909 120.734913 23.7268773 0 23.7268773"></polygon>
        <path d="M35.1835849,0.225660377 C16.2003774,0.225660377 0.810943396,15.6137736 0.810943396,34.5969811 L0.810943396,34.5969811 C0.810943396,53.5801887 16.2003774,68.9696226 35.1835849,68.9696226 L35.1835849,68.9696226 C54.1667925,68.9696226 69.5549057,53.5801887 69.5549057,34.5969811 L69.5549057,34.5969811 C69.5549057,15.6137736 54.1667925,0.225660377 35.1835849,0.225660377 Z" id="path-3"></path>
        <linearGradient x1="99.9993003%" y1="-0.000525082134%" x2="0.000876481777%" y2="99.9978987%" id="linearGradient-5">
            <stop stop-color="#F47E1F" offset="0%"></stop>
            <stop stop-color="#EB2885" offset="100%"></stop>
        </linearGradient>
    </defs>
    <g id="Page-1" stroke="none" stroke-width="1" fill="none" fill-rule="evenodd">
        <g id="Reveal" transform="translate(-47.000000, -67.000000)">
            <g id="Group-12" transform="translate(47.000000, 67.000000)">
                <g id="Group-10" transform="translate(0.000000, 80.272727)">
                    <mask id="mask-2" fill="white">
                        <use xlink:href="#path-1"></use>
                    </mask>
                    <g id="Clip-9"></g>
                    <path d="M107.399517,22.3190591 L107.399517,2.05201364 C107.399517,1.40874091 107.923322,0.857740909 108.570452,0.857740909 C109.248083,0.857740909 109.771887,1.40874091 109.771887,2.05201364 L109.771887,16.5638773 L118.39543,7.83751364 C118.671257,7.53169545 118.948409,7.37878636 119.318387,7.37878636 C119.965517,7.37878636 120.396496,7.89946818 120.396496,8.48078636 C120.396496,8.84855909 120.24267,9.09374091 119.935017,9.39955909 L114.730126,14.48115 L120.426996,21.61515 C120.643148,21.89065 120.735974,22.1041955 120.735974,22.4113318 C120.735974,23.0532864 120.24267,23.5133318 119.595539,23.5133318 C119.164561,23.5133318 118.887409,23.3604227 118.579757,22.9623318 L113.065887,16.0431955 L109.771887,19.2885591 L109.771887,22.3190591 C109.771887,22.99265 109.278583,23.5133318 108.600952,23.5133318 C107.923322,23.5133318 107.399517,22.99265 107.399517,22.3190591 L107.399517,22.3190591 Z M96.0561696,22.3190591 L96.0561696,8.57305909 C96.0561696,7.92978636 96.5799739,7.37878636 97.2271043,7.37878636 C97.9034087,7.37878636 98.427213,7.89946818 98.427213,8.57305909 L98.427213,11.5429227 C99.5981478,8.90919545 101.908191,7.31815 103.910583,7.31815 C104.618713,7.31815 105.080191,7.83751364 105.080191,8.51110455 C105.080191,9.15437727 104.649213,9.61310455 104.032583,9.70537727 C100.953409,10.07315 98.427213,12.3694227 98.427213,16.9303318 L98.427213,22.3190591 C98.427213,22.9623318 97.9352348,23.5133318 97.2576043,23.5133318 C96.5799739,23.5133318 96.0561696,22.99265 96.0561696,22.3190591 L96.0561696,22.3190591 Z M84.6199957,21.61515 C88.0704739,21.61515 90.4720174,18.8588318 90.4720174,15.5225136 L90.4720174,15.4605591 C90.4720174,12.0622864 87.9166478,9.27696818 84.5589957,9.27696818 C81.1098435,9.27696818 78.7374739,12.0622864 78.7374739,15.3999227 L78.7374739,15.4605591 C78.7374739,18.8588318 81.2636696,21.61515 84.6199957,21.61515 L84.6199957,21.61515 Z M84.5589957,23.7268773 C79.7850826,23.7268773 76.3041043,19.9924682 76.3041043,15.5225136 L76.3041043,15.4605591 C76.3041043,10.9919227 79.8155826,7.19424091 84.6199957,7.19424091 C89.3939087,7.19424091 92.905387,10.9299682 92.905387,15.3999227 L92.905387,15.4605591 C92.905387,19.9305136 89.3634087,23.7268773 84.5589957,23.7268773 L84.5589957,23.7268773 Z M57.8463,23.6056045 C57.2614957,23.6056045 56.7681913,23.2378318 56.5228652,22.5339227 L51.6866261,9.15437727 C51.6256261,8.97115 51.5328,8.72596818 51.5328,8.51110455 C51.5328,7.92978636 52.0261043,7.37878636 52.7342348,7.37878636 C53.3508652,7.37878636 53.7500174,7.77687727 53.9356696,8.35819545 L57.9391261,20.2363318 L61.9744087,8.32787727 C62.1587348,7.77687727 62.528713,7.37878636 63.1440174,7.37878636 L63.2673435,7.37878636 C63.9144739,7.37878636 64.3149522,7.77687727 64.4992783,8.32787727 L68.5027348,20.2363318 L72.5685174,8.29755909 C72.7223435,7.80719545 73.0618217,7.37878636 73.7089522,7.37878636 C74.3852565,7.37878636 74.8785609,7.89946818 74.8785609,8.48078636 C74.8785609,8.69565 74.7857348,8.94083182 74.7247348,9.12405909 L69.8579957,22.5339227 C69.6113435,23.2378318 69.1193652,23.6056045 68.5650609,23.6056045 L68.4722348,23.6056045 C67.8569304,23.6056045 67.3954522,23.2378318 67.1793,22.5339227 L63.2063435,10.9919227 L59.2015609,22.5339227 C58.9867348,23.2378318 58.5252565,23.6056045 57.9086261,23.6056045 L57.8463,23.6056045 Z M49.2758,21.33965 C47.766713,22.7777864 45.9804739,23.7268773 43.2699522,23.7268773 C38.8965174,23.7268773 35.322713,20.3905591 35.322713,15.4921955 L35.322713,15.4302409 C35.322713,10.8680136 38.5570391,7.19424091 42.9623,7.19424091 C47.673887,7.19424091 50.3525826,11.0222409 50.3525826,15.2166955 C50.3525826,15.8599682 49.8301043,16.3186955 49.2453,16.3186955 L37.7255826,16.3186955 C38.0650609,19.7472864 40.4971043,21.6757864 43.3309522,21.6757864 C45.3028435,21.6757864 46.7496043,20.9112409 47.9205391,19.8395591 C48.1048652,19.6853318 48.3210174,19.5640591 48.5981696,19.5640591 C49.1829739,19.5640591 49.6444522,20.0227864 49.6444522,20.5737864 C49.6444522,20.8492864 49.5211261,21.1247864 49.2758,21.33965 L49.2758,21.33965 Z M37.7255826,14.5734227 L47.9815391,14.5734227 C47.734887,11.6958318 46.0719739,9.18469545 42.8999739,9.18469545 C40.1284522,9.18469545 38.0332348,11.4809682 37.7255826,14.5734227 L37.7255826,14.5734227 Z M25.6436043,22.3190591 L25.6436043,8.57305909 C25.6436043,7.92978636 26.1674087,7.37878636 26.813213,7.37878636 C27.4908435,7.37878636 28.0146478,7.89946818 28.0146478,8.57305909 L28.0146478,11.5429227 C29.1855826,8.90919545 31.4956261,7.31815 33.4980174,7.31815 C34.2061478,7.31815 34.6676261,7.83751364 34.6676261,8.51110455 C34.6676261,9.15437727 34.2366478,9.61310455 33.6200174,9.70537727 C30.5408435,10.07315 28.0146478,12.3694227 28.0146478,16.9303318 L28.0146478,22.3190591 C28.0146478,22.9623318 27.5226696,23.5133318 26.843713,23.5133318 C26.1674087,23.5133318 25.6436043,22.99265 25.6436043,22.3190591 L25.6436043,22.3190591 Z M18.8885174,22.3190591 L18.8885174,8.57305909 C18.8885174,7.92978636 19.4123217,7.37878636 20.0594522,7.37878636 C20.7370826,7.37878636 21.260887,7.89946818 21.260887,8.57305909 L21.260887,22.3190591 C21.260887,22.99265 20.7675826,23.5133318 20.0899522,23.5133318 C19.4123217,23.5133318 18.8885174,22.99265 18.8885174,22.3190591 L18.8885174,22.3190591 Z M18.6736913,2.96946818 L18.6736913,2.57269545 C18.6736913,1.80683182 19.2889957,1.31646818 20.0594522,1.31646818 C20.8604087,1.31646818 21.4770391,1.80683182 21.4770391,2.57269545 L21.4770391,2.96946818 C21.4770391,3.70501364 20.8604087,4.22569545 20.0594522,4.22569545 C19.2889957,4.22569545 18.6736913,3.70501364 18.6736913,2.96946818 L18.6736913,2.96946818 Z M-0.000265217391,22.2887409 L-0.000265217391,3.15401364 C-0.000265217391,2.48042273 0.55403913,1.92942273 1.20116957,1.92942273 L14.5376261,1.92942273 C15.1529304,1.92942273 15.6462348,2.41846818 15.6462348,3.03142273 C15.6462348,3.64437727 15.1529304,4.16374091 14.5376261,4.16374091 L2.43310435,4.16374091 L2.43310435,11.8184227 L13.1505391,11.8184227 C13.7671696,11.8184227 14.2604739,12.3074682 14.2604739,12.9204227 C14.2604739,13.5320591 13.7671696,14.0224227 13.1505391,14.0224227 L2.43310435,14.0224227 L2.43310435,22.2887409 C2.43310435,22.9623318 1.8788,23.5133318 1.20116957,23.5133318 C0.55403913,23.5133318 -0.000265217391,22.9623318 -0.000265217391,22.2887409 L-0.000265217391,22.2887409 Z" id="Fill-8" fill="#000000" mask="url(#mask-2)"></path>
                </g>
                <g id="Group" transform="translate(20.000000, 0.000000)">
                    <g id="Group-3">
                        <mask id="mask-4" fill="white">
                            <use xlink:href="#path-3"></use>
                        </mask>
                        <g id="Clip-2"></g>
                        <path d="M35.1835849,0.225660377 C16.2003774,0.225660377 0.810943396,15.6137736 0.810943396,34.5969811 L0.810943396,34.5969811 C0.810943396,53.5801887 16.2003774,68.9696226 35.1835849,68.9696226 L35.1835849,68.9696226 C54.1667925,68.9696226 69.5549057,53.5801887 69.5549057,34.5969811 L69.5549057,34.5969811 C69.5549057,15.6137736 54.1667925,0.225660377 35.1835849,0.225660377 Z" id="Fill-1" fill="url(#linearGradient-5)" mask="url(#mask-4)"></path>
                    </g>
                    <g id="Group-11" transform="translate(18.000000, 18.000000)" fill="#FFFFFF">
                        <path d="M33.8574696,10.9622364 C33.7646435,7.17905455 30.5727522,4.17491818 26.7443391,4.26587273 L26.743013,4.26587273 L26.7390348,4.26587273 C21.1853826,4.39900909 19.1631,9.69546364 18.9416435,10.3295091 C16.5719261,15.7248273 12.0486435,16.2600091 10.4347957,16.2705545 C10.3552304,16.2547364 10.273013,16.2639636 10.1868174,16.2626455 C10.0475783,16.2613273 9.90701304,16.2494636 9.77042609,16.2441909 C9.76114348,16.2428727 9.75053478,16.2428727 9.74125217,16.2428727 C6.07462174,16.1031455 3.09225217,13.1596455 3.00207826,9.48719091 C2.90925217,5.66578182 5.97914348,2.48369091 9.84601304,2.39141818 C10.4294913,2.37691818 11.0010348,2.43491818 11.5579913,2.55882727 C12.6732304,2.82114545 15.7126217,3.83350909 17.2190565,7.27264545 C17.3980783,7.6826 17.8038609,7.92514545 18.2282087,7.92119091 C18.3701,7.91987273 18.5133174,7.89219091 18.6499043,7.83287273 C19.2028826,7.59691818 19.4561652,6.96419091 19.2174696,6.41846364 C17.8303826,3.25087273 15.427513,1.71519091 13.6505565,0.982281818 C13.6187304,0.965145455 13.5855783,0.949327273 13.5524261,0.936145455 C13.0538174,0.730509091 12.5432739,0.572327273 12.0234478,0.457645455 C11.9080783,0.431281818 11.8072957,0.411509091 11.7224261,0.394372727 C11.7184478,0.393054545 11.7144696,0.393054545 11.7104913,0.391736364 C11.5381,0.3601 11.4293609,0.3456 11.400187,0.341645455 C11.3948826,0.340327273 11.3895783,0.340327273 11.3829478,0.340327273 C10.8604696,0.263872727 10.3300348,0.228281818 9.79429565,0.241463636 C4.72731739,0.362736364 0.703969565,4.53346364 0.827295652,9.5386 C0.945317391,14.3552364 4.8586,18.2148727 9.66964348,18.3915091 C9.79562174,18.4033727 10.1125565,18.4257818 10.5713826,18.4139182 C11.3776435,18.3954636 12.6122304,18.2728727 13.9900348,17.8088727 C16.1634913,17.0772818 19.1365783,15.3254182 20.9572957,11.1401909 C20.9718826,11.1098727 20.9838174,11.0782364 20.9931,11.0466 C21.009013,11.0017818 22.5313609,6.51732727 26.7920783,6.41582727 L26.7960565,6.41582727 C29.425687,6.35255455 31.6177087,8.41550909 31.6813609,11.0149636 C31.745013,13.6131 29.6537739,15.7946909 27.0228174,15.8579636 C26.9657957,15.8592818 26.9140783,15.8487364 26.8597087,15.8579636 C26.4234261,15.8816909 24.4873391,15.8500545 23.0392522,13.5841 C22.7183391,13.0818727 22.046013,12.9316 21.5381217,13.2492818 C21.0302304,13.5656455 20.8777304,14.2300091 21.1986435,14.7322364 C23.1267739,17.7508727 25.8160783,18.0224182 26.8424696,18.0079182 C27.046687,18.0039636 27.1846,17.9894636 27.2376435,17.9828727 C30.9931217,17.8088727 33.9489696,14.6940091 33.8574696,10.9622364" id="Fill-4"></path>
                        <path d="M33.8930087,19.1209909 L29.260987,21.3579455 L29.260987,21.0916727 C29.260987,20.4932182 28.774313,20.0081273 28.1722696,20.0081273 C28.0820957,20.0081273 27.9945739,20.0213091 27.9097043,20.0410818 C21.7367696,20.8319909 19.2596391,16.5334 19.2596391,16.5334 C17.5861174,18.5475818 15.2548565,19.5797182 13.3055087,20.1083091 C6.30111739,21.5477636 2.75781304,17.7052636 2.75781304,17.7052636 C2.43557391,17.4047182 1.91309565,17.4811727 1.91309565,17.4811727 C1.82159565,17.4811727 1.73274783,17.4943545 1.64787826,17.5154455 C1.17446522,17.6327636 0.824378261,18.0572182 0.824378261,18.5647182 L0.824378261,32.0497182 C0.824378261,33.8411273 2.28970435,35.2977182 4.09185652,35.2977182 L25.9935087,35.2977182 C27.7956609,35.2977182 29.260987,33.8411273 29.260987,32.0497182 L29.260987,30.8000818 L34.110487,32.8669909 C34.2484,32.9263091 34.3942696,32.9553091 34.5401391,32.9553091 C34.7496609,32.9553091 34.9591826,32.8946727 35.1395304,32.7760364 C35.4445304,32.5756727 35.6288565,32.2355818 35.6288565,31.8717636 L35.6288565,20.1399455 C35.6288565,19.6799 35.3397696,19.2870818 34.9313348,19.1315364 C34.6170522,18.9733545 34.233813,18.9562182 33.8930087,19.1209909" id="Fill-6"></path>
                    </g>
                </g>
            </g>
        </g>
    </g>
</svg>