<?xml version="1.0" encoding="UTF-8"?>
<svg width="17px" height="14px" viewBox="0 0 17 14" version="1.1" xmlns="http://www.w3.org/2000/svg" xmlns:xlink="http://www.w3.org/1999/xlink">
    <!-- Generator: Sketch 53 (72520) - https://sketchapp.com -->
    <title>twitter</title>
    <desc>Created with Sketch.</desc>
    <g id="Page-1" stroke="none" stroke-width="1" fill="none" fill-rule="evenodd">
        <g id="Desktop-HD" transform="translate(-379.000000, -968.000000)" fill="#FFFFFF">
            <g id="Group-12" transform="translate(379.000000, 966.000000)">
                <g id="twitter" transform="translate(0.000500, 2.080500)">
                    <path d="M16.753,1.607 C15.916,2.026 14.825,2.148 14.825,2.148 C16.052,1.41 16.293,0.249 16.293,0.249 C15.149,0.959 14.106,1.077 14.106,1.077 C13.478,0.414 12.589,-3.37507799e-14 11.604,-3.37507799e-14 C9.703,-3.37507799e-14 8.162,1.541 8.162,3.441 C8.162,3.713 8.194,3.979 8.254,4.234 C3.64,4.051 1.156,0.625 1.156,0.625 C-0.339,3.521 2.181,5.213 2.181,5.213 C1.297,5.233 0.676,4.781 0.676,4.781 C0.771,7.781 3.413,8.205 3.413,8.205 C2.633,8.449 1.861,8.27 1.861,8.27 C2.774,10.744 5.078,10.669 5.078,10.669 C2.755,12.549 3.05533376e-13,12.079 3.05533376e-13,12.079 C2.003,13.49 4.355,13.598 4.355,13.598 C4.355,13.598 8.968,14.17 12.226,10.763 C15.484,7.357 15.045,3.503 15.045,3.503 C15.046,3.482 15.046,3.461 15.046,3.441 C16.495,2.317 16.753,1.607 16.753,1.607" id="Fill-4"></path>
                </g>
            </g>
        </g>
    </g>
</svg>