<svg xmlns="http://www.w3.org/2000/svg" xmlns:xlink="http://www.w3.org/1999/xlink" width="40" height="40" viewBox="0 0 40 40">
    <defs>
        <linearGradient id="prefix__a" x1="50%" x2="50%" y1="6.25%" y2="101.266%">
            <stop offset="0%" stop-color="#1DF47C"/>
            <stop offset="31%" stop-color="#12DF63"/>
            <stop offset="75%" stop-color="#05C443"/>
            <stop offset="100%" stop-color="#00BA37"/>
        </linearGradient>
        <path id="prefix__b" d="M16 8c4.97 0 9 3.268 9 7.3s-4.03 7.3-9 7.3c-.657 0-1.296-.059-1.913-.167v.002c-.748-.16-1.329.227-2.16.677-.56.303-1.45.488-1.859.488-.255 0 .417-.431.767-.85.46-.55.665-1.15.267-1.325-.01-.004-.017-.009-.02-.013C8.623 20.11 7 17.86 7 15.3 7 11.268 11.03 8 16 8z"/>
    </defs>
    <g fill="none" fill-rule="evenodd" transform="translate(4 4)">
        <circle cx="16" cy="16" r="16" fill="url(#prefix__a)"/>
        <use fill="#FFF" xlink:href="#prefix__b"/>
    </g>
</svg>
