<svg xmlns="http://www.w3.org/2000/svg" width="40" height="40" viewBox="0 0 40 40">
    <g fill="none" transform="translate(2 2)">
        <circle cx="18" cy="18" r="18" fill="#FFFC00"/>
        <path fill="#FFF" d="M18.127 26.314c-.057 0-.112-.002-.153-.004-.033.003-.067.004-.102.004-1.205 0-2.01-.558-2.721-1.052-.51-.353-.99-.686-1.554-.778-.276-.045-.551-.067-.817-.067-.48 0-.858.072-1.134.125-.17.033-.317.06-.43.06-.119 0-.263-.025-.323-.226-.048-.159-.082-.313-.115-.46-.082-.37-.142-.597-.283-.618-1.512-.229-2.405-.565-2.583-.973-.018-.041-.028-.085-.031-.129-.007-.121.08-.228.203-.248 1.2-.194 2.267-.816 3.172-1.85.7-.8 1.045-1.564 1.082-1.648l.005-.012c.175-.346.21-.646.104-.89-.195-.45-.84-.651-1.267-.784-.106-.033-.206-.064-.286-.095-.378-.147-1-.456-.918-.883.06-.312.481-.529.82-.529.095 0 .179.016.249.049.384.176.73.266 1.026.266.37 0 .548-.138.59-.178-.01-.197-.023-.395-.036-.593-.086-1.351-.194-3.034.244-3.999 1.314-2.888 4.1-3.112 4.923-3.112l.407-.004c.825 0 3.617.225 4.932 3.115.438.965.33 2.649.243 4.002l-.004.065c-.012.184-.023.358-.032.526.04.037.204.163.536.176.283-.01.608-.1.967-.264.11-.05.233-.061.316-.061.126 0 .254.024.36.067l.006.002c.304.106.504.318.508.54.004.207-.153.516-.925.815-.08.03-.18.062-.287.095-.427.133-1.071.334-1.266.784-.106.244-.071.543.103.89l.006.012c.054.123 1.354 3.03 4.254 3.498.122.02.21.127.203.248-.003.045-.014.089-.032.13-.177.405-1.07.742-2.581.97-.142.022-.202.247-.284.615-.034.152-.068.3-.115.458-.044.147-.142.219-.3.219h-.023c-.102 0-.247-.018-.43-.053-.32-.061-.678-.118-1.134-.118-.265 0-.54.023-.817.068-.563.091-1.043.424-1.552.777-.713.493-1.519 1.052-2.724 1.052"/>
        <path fill="#020202" d="M18.2 7.924c.776 0 3.45.204 4.709 2.974.415.911.308 2.563.223 3.89l-.037.61-.005.083.057.063c.023.025.24.246.719.264h.015c.318-.012.675-.108 1.063-.286.057-.027.133-.04.213-.04.092 0 .19.017.27.05l.012.005c.203.07.347.202.35.321 0 .068-.051.31-.772.59-.07.027-.163.056-.27.09-.47.145-1.179.366-1.417.917-.135.31-.098.677.109 1.089.085.194 1.424 3.152 4.438 3.639-.001.016-.005.032-.012.047-.051.118-.376.526-2.396.831-.317.048-.394.395-.484.799-.032.145-.065.29-.11.441-.014.046-.017.048-.067.048h-.024c-.09 0-.225-.018-.383-.048-.287-.055-.679-.122-1.18-.122-.28 0-.568.024-.858.071-.618.1-1.12.45-1.653.818-.715.496-1.454 1.008-2.582 1.008-.05 0-.097-.001-.145-.004h-.026c-.028.003-.055.004-.084.004-1.127 0-1.867-.512-2.582-1.008-.532-.369-1.035-.717-1.653-.818-.29-.047-.578-.071-.857-.071-.502 0-.894.075-1.18.13-.159.03-.295.056-.384.056-.073 0-.075-.004-.09-.056-.046-.15-.079-.3-.111-.445-.09-.404-.168-.753-.484-.8-2.02-.307-2.344-.715-2.396-.833-.007-.015-.01-.031-.012-.048 3.014-.486 4.353-3.444 4.438-3.64.207-.411.244-.777.109-1.088-.239-.551-.947-.772-1.416-.918-.108-.033-.2-.062-.271-.09-.61-.235-.796-.473-.769-.617.033-.166.326-.335.582-.335.058 0 .109.01.146.027.416.19.796.288 1.129.288.524 0 .757-.24.782-.266l.057-.063-.005-.083c-.01-.195-.024-.399-.037-.609-.085-1.327-.192-2.978.223-3.89 1.255-2.759 3.915-2.971 4.7-2.971l.362-.004h.045m0-.476h-.051l-.357.004c-.46 0-1.38.063-2.369.491-.565.245-1.074.575-1.511.983-.522.485-.947 1.084-1.263 1.78-.463 1.018-.353 2.733-.265 4.11v.003l.029.452c-.068.03-.178.063-.34.063-.262 0-.573-.082-.924-.244-.103-.047-.221-.07-.351-.07-.21 0-.43.06-.62.17-.241.138-.397.334-.44.551-.027.144-.026.427.296.715.177.158.436.305.772.434.088.034.192.067.303.101.383.12.964.3 1.116.65.076.177.043.41-.098.692l-.011.023c-.035.081-.366.815-1.043 1.588-.385.44-.809.807-1.26 1.093-.55.348-1.144.576-1.768.677-.244.039-.42.253-.406.496.005.07.021.14.05.207l.001.001c.1.227.329.42.702.59.456.208 1.138.383 2.026.52.045.083.092.293.124.437.034.154.07.31.12.478.054.181.194.398.555.398.137 0 .294-.03.477-.065.266-.051.631-.121 1.087-.121.252 0 .514.021.778.064.507.083.945.386 1.452.738.741.513 1.58 1.095 2.863 1.095.035 0 .07-.001.104-.004.043.002.095.004.15.004 1.283 0 2.122-.582 2.863-1.095v-.001c.508-.351.945-.654 1.452-.737.264-.043.526-.064.778-.064.435 0 .78.054 1.087.113.201.039.357.057.477.057h.024c.264 0 .458-.142.532-.39.05-.164.084-.318.119-.474.03-.135.078-.35.123-.436.89-.136 1.571-.31 2.027-.518.372-.17.602-.362.701-.588.03-.068.048-.138.052-.21.013-.243-.162-.457-.407-.496-2.77-.448-4.018-3.239-4.07-3.357l-.01-.023c-.142-.282-.175-.515-.098-.693.15-.349.731-.53 1.115-.649.111-.034.216-.067.303-.1.379-.147.649-.306.827-.486.213-.215.254-.421.252-.556-.007-.326-.261-.616-.666-.758-.136-.055-.292-.085-.45-.085-.109 0-.269.015-.42.084-.324.149-.615.23-.864.242-.132-.007-.225-.035-.286-.062l.025-.394.004-.058c.088-1.38.199-3.096-.265-4.115-.317-.697-.744-1.298-1.267-1.784-.44-.408-.95-.738-1.517-.983-.988-.424-1.908-.488-2.369-.488"/>
    </g>
</svg>
