<svg xmlns="http://www.w3.org/2000/svg" width="40" height="40" viewBox="0 0 40 40">
    <defs>
        <linearGradient id="prefix__a" x1="50%" x2="50%" y1="6.25%" y2="101.266%">
            <stop offset="0%" stop-color="#1DF47C"/>
            <stop offset="31%" stop-color="#12DF63"/>
            <stop offset="75%" stop-color="#05C443"/>
            <stop offset="100%" stop-color="#00BA37"/>
        </linearGradient>
    </defs>
    <g fill="none" fill-rule="evenodd" transform="translate(4 4)">
        <circle cx="16" cy="16" r="16" fill="url(#prefix__a)"/>
        <path fill="#FFF" fill-rule="nonzero" d="M16.012 6.5c5.226 0 9.478 4.252 9.478 9.478 0 5.225-4.252 9.477-9.478 9.477-1.628 0-3.223-.417-4.633-1.208L6.51 25.5l1.33-4.72c-.855-1.453-1.305-3.105-1.305-4.802 0-5.226 4.251-9.478 9.477-9.478zm0 1.608c-4.34 0-7.87 3.53-7.87 7.87 0 1.512.43 2.98 1.243 4.246l.195.304-.765 2.719 2.813-.724.29.177c1.23.75 2.646 1.147 4.094 1.147 4.34 0 7.87-3.53 7.87-7.87 0-4.339-3.53-7.87-7.87-7.87zm-3.277 3.425l.615.033c.12.007.228.082.276.193l.895 2.096c.048.112.028.242-.052.334l-.78.902c-.062.073-.074.177-.029.263 1.027 1.979 2.899 2.762 3.458 2.959.095.033.2.002.262-.078l.816-1.058c.09-.118.25-.157.386-.095l2.078.958c.135.063.21.21.178.356l-.098.459c-.11.517-.418.975-.864 1.26-.563.36-1.292.537-2.22.275-2.878-.814-4.505-2.72-5.379-3.91-.873-1.191-1.21-2.382-.992-3.355.146-.652.623-1.152.921-1.411.146-.127.336-.192.529-.181z"/>
    </g>
</svg>
