<svg xmlns="http://www.w3.org/2000/svg" xmlns:xlink="http://www.w3.org/1999/xlink" width="24" height="24" viewBox="0 0 24 24">
    <defs>
        <path id="prefix__a" d="M8 .345c.694 0 1.338.363 1.7.96l5.613 9.37c.353.611.355 1.364.005 1.977s-.998.995-1.71 1.003H2.384c-.706-.008-1.354-.39-1.704-1.003-.35-.613-.347-1.366.01-1.986L6.3 1.305C6.662.708 7.305.345 8 .345zM8 1.67c-.231 0-.445.12-.566.317l-5.6 9.35c-.118.204-.12.455-.003.66.117.204.333.33.561.334H13.6c.235-.003.451-.13.568-.335.116-.204.116-.455.003-.65L8.566 1.989C8.446 1.79 8.23 1.67 8 1.67zm-.468 7.544c.258-.258.677-.258.936 0 .258.259.258.678 0 .936-.259.259-.678.259-.936 0-.259-.258-.259-.677 0-.936zM8 4.386c.365 0 .662.296.662.662v2.648c0 .366-.297.662-.662.662-.366 0-.662-.296-.662-.662V5.048c0-.366.296-.662.662-.662z"/>
    </defs>
    <g fill="none" fill-rule="evenodd" transform="translate(4 5)">
        <use fill="#FFF" fill-rule="nonzero" xlink:href="#prefix__a"/>
    </g>
</svg>
