<svg xmlns="http://www.w3.org/2000/svg" xmlns:xlink="http://www.w3.org/1999/xlink" width="40" height="40" viewBox="0 0 40 40">
    <defs>
        <path id="prefix__a" d="M21.842 8.724c.995.047 1.672.205 2.265.435.615.24 1.135.558 1.654 1.077.519.517.839 1.039 1.076 1.648.233.596.388 1.274.435 2.266.042.907.055 1.25.057 3.225v1.242c-.002 1.974-.015 2.317-.057 3.225-.047.994-.205 1.672-.435 2.265-.24.615-.557 1.135-1.076 1.654-.517.52-1.039.84-1.648 1.077-.596.232-1.274.388-2.265.435-.907.042-1.251.055-3.225.057h-1.241c-1.974-.002-2.317-.015-3.224-.057-.995-.047-1.673-.205-2.266-.435-.615-.24-1.134-.558-1.653-1.077-.52-.516-.839-1.039-1.077-1.648-.232-.596-.388-1.274-.434-2.266-.039-.832-.053-1.19-.057-2.765v-1.888c.003-1.81.016-2.16.057-3.038.046-.995.205-1.673.434-2.266.24-.615.558-1.135 1.077-1.654.517-.52 1.038-.84 1.65-1.074.596-.233 1.274-.388 2.266-.435.814-.038 1.174-.052 2.667-.056h2.356c1.492.004 1.852.018 2.664.053zm-2.914 1.627h-1.856c-1.658.003-1.995.015-2.84.054-.91.044-1.405.195-1.733.323-.435.17-.746.372-1.071.697-.325.325-.528.637-.697 1.071-.128.328-.282.823-.323 1.733-.043.926-.053 1.242-.054 3.352v.632c0 2.294.012 2.6.054 3.555.044.91.195 1.405.323 1.733.17.434.372.746.697 1.071.325.325.636.528 1.071.697.328.129.823.282 1.733.323.832.039 1.171.05 2.764.054h1.99c1.608-.004 1.947-.017 2.782-.054.91-.044 1.405-.194 1.733-.323.434-.17.746-.372 1.071-.697.325-.325.527-.637.697-1.071.128-.328.281-.823.322-1.733.04-.833.052-1.172.054-2.766v-1.99c-.003-1.608-.017-1.947-.054-2.783-.043-.91-.194-1.405-.322-1.733-.17-.434-.372-.746-.697-1.071-.325-.325-.637-.528-1.071-.697-.328-.128-.823-.282-1.733-.323-.845-.04-1.182-.051-2.84-.054zM18 13.207c2.645 0 4.79 2.146 4.79 4.792 0 2.645-2.145 4.791-4.79 4.791s-4.79-2.146-4.79-4.791c0-2.646 2.145-4.792 4.79-4.792zm0 1.681c-1.716 0-3.11 1.391-3.11 3.11 0 1.72 1.394 3.111 3.11 3.111s3.11-1.391 3.11-3.11c0-1.72-1.394-3.11-3.11-3.11zm4.979-2.99c.619 0 1.12.502 1.12 1.12 0 .62-.501 1.121-1.12 1.121-.619 0-1.12-.502-1.12-1.12 0-.62.501-1.121 1.12-1.121z"/>
    </defs>
    <g fill="none" fill-rule="evenodd" transform="translate(2 2)">
        <path fill="#404040" d="M18 36c9.941 0 18-8.059 18-18S27.941 0 18 0 0 8.059 0 18s8.059 18 18 18z"/>
        <use fill="#FFF" xlink:href="#prefix__a"/>
    </g>
</svg>
