<svg xmlns="http://www.w3.org/2000/svg" width="40" height="40" viewBox="0 0 40 40">
    <g fill="none" fill-rule="evenodd">
        <path fill="#404040" d="M18 36c9.941 0 18-8.059 18-18S27.941 0 18 0 0 8.059 0 18s8.059 18 18 18z" transform="translate(2 2)"/>
        <path fill="#FFF" d="M26.605 10.82c-.53.343-1.748.844-2.348.844-.686-.725-1.65-1.178-2.721-1.178-2.08 0-3.765 1.708-3.765 3.815 0 .292.034.578.095.852-2.82-.075-5.905-1.508-7.761-3.96-1.142 2.003-.154 4.23 1.141 5.042-.443.034-1.26-.052-1.644-.432-.025 1.33.605 3.09 2.905 3.73-.443.24-1.227.172-1.568.12.12 1.122 1.67 2.59 3.365 2.59-.604.708-2.877 1.993-5.429 1.584 1.733 1.068 3.752 1.687 5.89 1.687 6.074 0 10.79-4.99 10.537-11.144l-.002-.021.002-.048-.002-.056c.553-.383 1.294-1.061 1.825-1.954-.308.172-1.23.516-2.088.6.55-.3 1.367-1.287 1.568-2.072z" transform="translate(2 2)"/>
    </g>
</svg>
