<svg xmlns="http://www.w3.org/2000/svg" width="121" height="23" viewBox="0 0 121 23">
    <path fill="#FFF" d="M.333 20.673V2.215c0-.65.532-1.181 1.152-1.181h12.788c.59 0 1.063.472 1.063 1.063 0 .59-.472 1.093-1.063 1.093H2.666v7.383h10.278c.59 0 1.063.472 1.063 1.063 0 .59-.472 1.063-1.063 1.063H2.666v7.974c0 .65-.531 1.182-1.18 1.182-.621 0-1.153-.532-1.153-1.182zm18.53-18.635v-.384c0-.738.592-1.211 1.33-1.211.768 0 1.358.473 1.358 1.21v.385c0 .709-.59 1.21-1.358 1.21-.738 0-1.33-.501-1.33-1.21zm.208 18.665V7.443c0-.62.502-1.152 1.122-1.152.65 0 1.152.502 1.152 1.151v13.26c0 .65-.473 1.153-1.123 1.153s-1.151-.502-1.151-1.152zm7.1 0V7.443c0-.62.503-1.152 1.123-1.152.65 0 1.152.502 1.152 1.151v2.865c1.122-2.54 3.337-4.075 5.257-4.075.679 0 1.122.502 1.122 1.151 0 .62-.413 1.064-1.004 1.152-2.953.355-5.375 2.57-5.375 6.97v5.198c0 .62-.473 1.152-1.122 1.152-.65 0-1.152-.502-1.152-1.152zm12.211-7.472h9.835c-.237-2.776-1.831-5.198-4.873-5.198-2.658 0-4.667 2.215-4.962 5.198zm11.075 6.527c-1.447 1.388-3.16 2.303-5.759 2.303-4.194 0-7.62-3.219-7.62-7.944v-.06c0-4.4 3.102-7.944 7.325-7.944 4.518 0 7.088 3.692 7.088 7.738 0 .62-.502 1.063-1.063 1.063H38.382c.325 3.308 2.658 5.169 5.375 5.169 1.89 0 3.278-.739 4.4-1.772.178-.148.385-.266.65-.266.562 0 1.005.443 1.005.974 0 .266-.119.532-.355.739zm8.844 2.185c-.561 0-1.034-.354-1.27-1.033L52.394 8.004c-.059-.178-.148-.414-.148-.62 0-.562.473-1.093 1.152-1.093.59 0 .975.384 1.152.945l3.84 11.459 3.868-11.489c.177-.531.532-.915 1.122-.915h.119c.62 0 1.004.384 1.18.915l3.84 11.489 3.899-11.518c.147-.473.472-.886 1.092-.886.65 0 1.123.502 1.123 1.063 0 .207-.089.443-.148.62L69.819 20.91c-.237.679-.71 1.033-1.24 1.033h-.09c-.59 0-1.033-.354-1.24-1.033L63.44 9.776 59.6 20.91c-.207.679-.65 1.033-1.24 1.033h-.06zm26.238.118c-4.577 0-7.915-3.603-7.915-7.915v-.059c0-4.311 3.367-7.974 7.974-7.974 4.578 0 7.945 3.603 7.945 7.915v.06c0 4.311-3.396 7.973-8.004 7.973zm.06-2.037c3.307 0 5.61-2.658 5.61-5.878v-.059c0-3.278-2.45-5.965-5.67-5.965-3.307 0-5.581 2.687-5.581 5.906v.06c0 3.278 2.421 5.936 5.64 5.936zm11.59.679V7.443c0-.62.502-1.152 1.122-1.152.65 0 1.152.502 1.152 1.151v2.865c1.122-2.54 3.337-4.075 5.257-4.075.679 0 1.122.502 1.122 1.151 0 .62-.414 1.064-1.004 1.152-2.954.355-5.375 2.57-5.375 6.97v5.198c0 .62-.473 1.152-1.123 1.152s-1.151-.502-1.151-1.152zm11.501 0V1.152c0-.62.502-1.152 1.123-1.152.65 0 1.151.532 1.151 1.152V15.15l8.27-8.417c.265-.296.531-.443.886-.443.62 0 1.033.502 1.033 1.063 0 .354-.147.59-.443.886l-4.99 4.902 5.463 6.882c.207.265.295.472.295.767 0 .62-.472 1.064-1.093 1.064-.413 0-.679-.148-.974-.532l-5.287-6.674-3.16 3.13v2.924c0 .65-.472 1.152-1.122 1.152-.65 0-1.152-.502-1.152-1.152z"/>
</svg>
