<svg xmlns="http://www.w3.org/2000/svg" width="40" height="40" viewBox="0 0 40 40">
    <defs>
        <linearGradient id="prefix__a" x1="100%" x2="0%" y1="0%" y2="100%">
            <stop offset="0%" stop-color="#FF8003"/>
            <stop offset="100%" stop-color="#FF1988"/>
        </linearGradient>
    </defs>
    <g fill="none">
        <circle cx="20" cy="20" r="20" fill="url(#prefix__a)"/>
        <path fill="#FFF" d="M29.644 16.252c-.054-2.206-1.903-3.957-4.122-3.904h-.003c-3.22.077-4.39 3.165-4.52 3.535-1.372 3.146-3.994 3.457-4.929 3.464-.047-.01-.094-.004-.144-.005-.08-.001-.162-.008-.241-.01l-.017-.002c-2.125-.081-3.853-1.797-3.905-3.938-.054-2.228 1.725-4.083 3.966-4.137.337-.008.669.025.992.097.646.153 2.408.744 3.28 2.749.104.239.34.38.585.378.082 0 .165-.017.245-.052.32-.137.467-.506.329-.824-.804-1.847-2.197-2.743-3.227-3.17-.018-.01-.037-.019-.056-.027-.29-.12-.585-.211-.887-.278-.066-.016-.125-.028-.174-.037l-.007-.002c-.1-.019-.163-.027-.18-.03h-.01c-.302-.045-.61-.065-.92-.057-2.937.07-5.268 2.502-5.197 5.42.068 2.808 2.337 5.059 5.124 5.161.073.007.257.02.523.014.467-.012 1.183-.083 1.98-.353 1.26-.427 2.984-1.448 4.04-3.889l.02-.054c.009-.026.892-2.64 3.36-2.7h.003c1.524-.036 2.794 1.166 2.83 2.681.038 1.515-1.174 2.787-2.699 2.824-.033 0-.063-.005-.094 0-.254.014-1.376-.004-2.214-1.325-.186-.293-.576-.38-.87-.196-.295.185-.383.572-.197.865 1.117 1.76 2.676 1.918 3.27 1.91.12-.003.2-.011.23-.015 2.176-.102 3.89-1.918 3.836-4.093"/>
        <path fill="#FFF" d="M29.665 21.009l-2.684 1.303v-.155c0-.348-.283-.631-.632-.631-.052 0-.103.007-.152.02-3.577.46-5.013-2.046-5.013-2.046-.97 1.175-2.32 1.776-3.45 2.084-4.06.84-6.114-1.4-6.114-1.4-.186-.176-.489-.131-.489-.131-.053 0-.104.007-.154.02-.274.068-.477.316-.477.611v7.862c0 1.044.85 1.894 1.894 1.894h12.693c1.044 0 1.894-.85 1.894-1.894v-.728l2.81 1.205c.08.034.164.05.249.05.121 0 .242-.035.347-.103.177-.117.284-.315.284-.528v-6.839c0-.268-.168-.497-.404-.588-.183-.093-.404-.102-.602-.006z"/>
    </g>
</svg>
